<?xml version="1.0" encoding="UTF-8"?>
<svg xmlns="http://www.w3.org/2000/svg" xmlns:xlink="http://www.w3.org/1999/xlink" width="4000" height="2666.67" viewBox="0 0 4000 2666.67">
<defs>
<clipPath id="clip-0">
<path clip-rule="nonzero" d="M 1270 1523 L 4000 1523 L 4000 2666.671875 L 1270 2666.671875 Z M 1270 1523 "/>
</clipPath>
<clipPath id="clip-1">
<path clip-rule="nonzero" d="M 659 589 L 4000 589 L 4000 2666.671875 L 659 2666.671875 Z M 659 589 "/>
</clipPath>
<clipPath id="clip-2">
<path clip-rule="nonzero" d="M 659 2065 L 3341 2065 L 3341 2109 L 659 2109 Z M 659 2065 "/>
</clipPath>
<clipPath id="clip-3">
<path clip-rule="nonzero" d="M 2580.851562 2065.160156 L 659.058594 2065.160156 C 659.058594 2065.160156 723.175781 2108.699219 844.839844 2108.699219 C 966.503906 2108.699219 2580.851562 2108.699219 2580.851562 2108.699219 C 2580.851562 2108.699219 3033.511719 2108.699219 3155.179688 2108.699219 C 3276.839844 2108.699219 3340.960938 2065.160156 3340.960938 2065.160156 Z M 2580.851562 2065.160156 "/>
</clipPath>
<clipPath id="clip-4">
<path clip-rule="nonzero" d="M 2580.851562 2065.160156 L 659.058594 2065.160156 C 659.058594 2065.160156 723.175781 2108.699219 844.839844 2108.699219 C 966.503906 2108.699219 2580.851562 2108.699219 2580.851562 2108.699219 C 2580.851562 2108.699219 3033.511719 2108.699219 3155.179688 2108.699219 C 3276.839844 2108.699219 3340.960938 2065.160156 3340.960938 2065.160156 L 2580.851562 2065.160156 "/>
</clipPath>
<linearGradient id="linear-pattern-0" gradientUnits="userSpaceOnUse" x1="0.28617" y1="0" x2="0.356534" y2="0" gradientTransform="matrix(-2.97782, 766.79, -766.79, -2.97782, 2000.88, 1840.52)">
<stop offset="0" stop-color="rgb(75.312805%, 74.864197%, 74.975586%)" stop-opacity="1"/>
<stop offset="0.03125" stop-color="rgb(75.216675%, 74.766541%, 74.87793%)" stop-opacity="1"/>
<stop offset="0.0625" stop-color="rgb(75.027466%, 74.572754%, 74.685669%)" stop-opacity="1"/>
<stop offset="0.09375" stop-color="rgb(74.839783%, 74.382019%, 74.494934%)" stop-opacity="1"/>
<stop offset="0.125" stop-color="rgb(74.649048%, 74.188232%, 74.302673%)" stop-opacity="1"/>
<stop offset="0.15625" stop-color="rgb(74.458313%, 73.994446%, 74.108887%)" stop-opacity="1"/>
<stop offset="0.1875" stop-color="rgb(74.269104%, 73.800659%, 73.918152%)" stop-opacity="1"/>
<stop offset="0.21875" stop-color="rgb(74.079895%, 73.608398%, 73.725891%)" stop-opacity="1"/>
<stop offset="0.25" stop-color="rgb(73.88916%, 73.413086%, 73.532104%)" stop-opacity="1"/>
<stop offset="0.28125" stop-color="rgb(73.699951%, 73.220825%, 73.339844%)" stop-opacity="1"/>
<stop offset="0.3125" stop-color="rgb(73.509216%, 73.027039%, 73.147583%)" stop-opacity="1"/>
<stop offset="0.34375" stop-color="rgb(73.321533%, 72.836304%, 72.956848%)" stop-opacity="1"/>
<stop offset="0.375" stop-color="rgb(73.130798%, 72.640991%, 72.763062%)" stop-opacity="1"/>
<stop offset="0.40625" stop-color="rgb(72.941589%, 72.44873%, 72.570801%)" stop-opacity="1"/>
<stop offset="0.4375" stop-color="rgb(72.75238%, 72.25647%, 72.380066%)" stop-opacity="1"/>
<stop offset="0.46875" stop-color="rgb(72.561646%, 72.062683%, 72.186279%)" stop-opacity="1"/>
<stop offset="0.5" stop-color="rgb(72.370911%, 71.868896%, 71.992493%)" stop-opacity="1"/>
<stop offset="0.53125" stop-color="rgb(72.181702%, 71.67511%, 71.801758%)" stop-opacity="1"/>
<stop offset="0.5625" stop-color="rgb(71.994019%, 71.484375%, 71.611023%)" stop-opacity="1"/>
<stop offset="0.59375" stop-color="rgb(71.801758%, 71.289062%, 71.417236%)" stop-opacity="1"/>
<stop offset="0.625" stop-color="rgb(71.612549%, 71.096802%, 71.224976%)" stop-opacity="1"/>
<stop offset="0.65625" stop-color="rgb(71.424866%, 70.904541%, 71.034241%)" stop-opacity="1"/>
<stop offset="0.6875" stop-color="rgb(71.235657%, 70.71228%, 70.84198%)" stop-opacity="1"/>
<stop offset="0.71875" stop-color="rgb(71.044922%, 70.518494%, 70.649719%)" stop-opacity="1"/>
<stop offset="0.75" stop-color="rgb(70.854187%, 70.324707%, 70.455933%)" stop-opacity="1"/>
<stop offset="0.78125" stop-color="rgb(70.666504%, 70.132446%, 70.265198%)" stop-opacity="1"/>
<stop offset="0.8125" stop-color="rgb(70.475769%, 69.93866%, 70.071411%)" stop-opacity="1"/>
<stop offset="0.84375" stop-color="rgb(70.285034%, 69.743347%, 69.877625%)" stop-opacity="1"/>
<stop offset="0.875" stop-color="rgb(70.095825%, 69.552612%, 69.68689%)" stop-opacity="1"/>
<stop offset="0.90625" stop-color="rgb(69.906616%, 69.358826%, 69.494629%)" stop-opacity="1"/>
<stop offset="0.9375" stop-color="rgb(69.717407%, 69.166565%, 69.303894%)" stop-opacity="1"/>
<stop offset="0.96875" stop-color="rgb(69.526672%, 68.971252%, 69.110107%)" stop-opacity="1"/>
<stop offset="1" stop-color="rgb(69.337463%, 68.780518%, 68.919373%)" stop-opacity="1"/>
</linearGradient>
</defs>
<path fill-rule="nonzero" fill="rgb(96.110535%, 73.664856%, 22.102356%)" fill-opacity="1" d="M 0 2666.671875 L 4000 2666.671875 L 4000 0 L 0 0 Z M 0 2666.671875 "/>
<g clip-path="url(#clip-0)">
<path fill-rule="nonzero" fill="rgb(84.671021%, 83.288574%, 82.800293%)" fill-opacity="1" d="M 4000 2666.671875 L 1270.800781 2666.671875 L 4000 2666.671875 L 4000 1523.390625 L 4000 2666.671875 "/>
</g>
<g clip-path="url(#clip-1)">
<path fill-rule="nonzero" fill="rgb(81.861877%, 63.024902%, 22.320557%)" fill-opacity="1" d="M 4000 2666.671875 L 1270.800781 2666.671875 L 659.039062 2065.148438 L 897.5 2041.101562 L 932.210938 2030.179688 C 946.203125 2043.691406 965.222656 2052.039062 986.09375 2052.039062 L 3005.171875 2052.039062 C 3047.890625 2052.039062 3082.828125 2017.089844 3082.828125 1974.378906 L 3082.828125 635.621094 C 3082.828125 618.578125 3077.269531 602.769531 3067.871094 589.929688 L 4000 1523.390625 L 4000 2666.671875 "/>
</g>
<path fill-rule="nonzero" fill="rgb(7.269287%, 6.846619%, 6.454468%)" fill-opacity="1" d="M 3082.828125 635.621094 L 3082.828125 1974.378906 C 3082.828125 2017.089844 3047.890625 2052.039062 3005.171875 2052.039062 L 986.09375 2052.039062 C 943.378906 2052.039062 908.433594 2017.089844 908.433594 1974.378906 L 908.433594 635.621094 C 908.433594 592.910156 943.378906 557.960938 986.09375 557.960938 L 3005.171875 557.960938 C 3047.890625 557.960938 3082.828125 592.910156 3082.828125 635.621094 "/>
<path fill-rule="nonzero" fill="rgb(95.063782%, 94.978333%, 94.863892%)" fill-opacity="1" d="M 3340.960938 2017.050781 L 3340.960938 2065.148438 L 659.039062 2065.148438 L 659.039062 2017.050781 L 3340.960938 2017.050781 "/>
<g clip-path="url(#clip-2)">
<g clip-path="url(#clip-3)">
<g clip-path="url(#clip-4)">
<path fill-rule="nonzero" fill="url(#linear-pattern-0)" d="M 3341.128906 2065.160156 L 659.097656 2054.746094 L 658.890625 2108.699219 L 3340.917969 2119.113281 Z M 3341.128906 2065.160156 "/>
</g>
</g>
</g>
<path fill-rule="nonzero" fill="rgb(78.172302%, 91.783142%, 98.045349%)" fill-opacity="1" d="M 3006.921875 1923.421875 L 996.433594 1923.421875 C 990.558594 1923.421875 985.800781 1918.660156 985.800781 1912.789062 L 985.800781 653.429688 C 985.800781 647.558594 990.558594 642.789062 996.433594 642.789062 L 3006.921875 642.789062 C 3012.800781 642.789062 3017.558594 647.558594 3017.558594 653.429688 L 3017.558594 1912.789062 C 3017.558594 1918.660156 3012.800781 1923.421875 3006.921875 1923.421875 "/>
<path fill-rule="nonzero" fill="rgb(80.19104%, 79.829407%, 79.003906%)" fill-opacity="1" d="M 2224.871094 2017.050781 C 2223.128906 2026.53125 2218.488281 2035.101562 2211.898438 2041.679688 C 2203.390625 2050.148438 2191.679688 2055.421875 2178.808594 2055.421875 L 1827.488281 2055.421875 C 1804.601562 2055.421875 1785.441406 2038.78125 1781.421875 2017.050781 L 2224.871094 2017.050781 "/>
<path fill-rule="nonzero" fill="rgb(7.148743%, 6.719971%, 6.312561%)" fill-opacity="1" d="M 2577.308594 642.789062 L 2597.308594 642.789062 L 2597.308594 557.957031 L 2577.308594 557.957031 Z M 2577.308594 642.789062 "/>
<path fill-rule="nonzero" fill="rgb(66.88385%, 77.488708%, 82.18689%)" fill-opacity="1" d="M 2580.808594 1883.871094 L 1459.191406 1883.871094 C 1450.078125 1883.871094 1442.691406 1876.46875 1442.691406 1867.371094 L 1442.691406 1863.859375 L 2560.820312 1863.859375 C 2569.921875 1863.859375 2577.308594 1856.46875 2577.308594 1847.371094 L 2577.308594 642.789062 L 2597.308594 642.789062 L 2597.308594 1867.371094 C 2597.308594 1876.46875 2589.921875 1883.871094 2580.808594 1883.871094 "/>
<path fill-rule="nonzero" fill="rgb(100%, 100%, 100%)" fill-opacity="1" d="M 2577.308594 429.691406 L 2577.308594 1847.371094 C 2577.308594 1856.46875 2569.921875 1863.859375 2560.820312 1863.859375 L 1439.191406 1863.859375 C 1430.078125 1863.859375 1422.691406 1856.46875 1422.691406 1847.371094 L 1422.691406 429.691406 C 1422.691406 420.578125 1430.078125 413.199219 1439.191406 413.199219 L 2560.820312 413.199219 C 2569.921875 413.199219 2577.308594 420.578125 2577.308594 429.691406 "/>
<path fill-rule="nonzero" fill="rgb(34.188843%, 53.227234%, 80.796814%)" fill-opacity="1" d="M 2577.308594 413.199219 L 2577.308594 483.941406 L 1422.691406 483.941406 L 1422.691406 413.199219 C 1422.691406 404.078125 1430.078125 396.699219 1439.191406 396.699219 L 2560.820312 396.699219 C 2569.921875 396.699219 2577.308594 404.078125 2577.308594 413.199219 "/>
<path fill-rule="nonzero" fill="rgb(100%, 100%, 100%)" fill-opacity="1" d="M 2300.988281 435.738281 L 2300.988281 444.898438 C 2300.988281 451.558594 2295.550781 457 2288.898438 457 L 1489.28125 457 C 1482.628906 457 1477.191406 451.558594 1477.191406 444.898438 L 1477.191406 435.738281 C 1477.191406 429.089844 1482.628906 423.648438 1489.28125 423.648438 L 2288.898438 423.648438 C 2295.550781 423.648438 2300.988281 429.089844 2300.988281 435.738281 "/>
<path fill-rule="nonzero" fill="rgb(95.173645%, 36.34491%, 38.145447%)" fill-opacity="1" d="M 2388.171875 440.320312 C 2388.171875 448.121094 2381.851562 454.449219 2374.050781 454.449219 C 2366.25 454.449219 2359.921875 448.121094 2359.921875 440.320312 C 2359.921875 432.519531 2366.25 426.199219 2374.050781 426.199219 C 2381.851562 426.199219 2388.171875 432.519531 2388.171875 440.320312 "/>
<path fill-rule="nonzero" fill="rgb(98.269653%, 74.749756%, 18.812561%)" fill-opacity="1" d="M 2434.339844 440.320312 C 2434.339844 448.121094 2428.019531 454.449219 2420.210938 454.449219 C 2412.410156 454.449219 2406.089844 448.121094 2406.089844 440.320312 C 2406.089844 432.519531 2412.410156 426.199219 2420.210938 426.199219 C 2428.019531 426.199219 2434.339844 432.519531 2434.339844 440.320312 "/>
<path fill-rule="nonzero" fill="rgb(24.737549%, 65.359497%, 63.772583%)" fill-opacity="1" d="M 2480.511719 440.320312 C 2480.511719 448.121094 2474.179688 454.449219 2466.378906 454.449219 C 2458.578125 454.449219 2452.261719 448.121094 2452.261719 440.320312 C 2452.261719 432.519531 2458.578125 426.199219 2466.378906 426.199219 C 2474.179688 426.199219 2480.511719 432.519531 2480.511719 440.320312 "/>
<path fill-rule="nonzero" fill="rgb(70.669556%, 78.071594%, 87.028503%)" fill-opacity="1" d="M 2535.570312 1824.589844 L 1472.488281 1824.589844 L 1472.488281 1643.101562 L 2535.570312 1643.101562 L 2535.570312 1824.589844 "/>
<path fill-rule="nonzero" fill="rgb(89.538574%, 89.491272%, 88.967896%)" fill-opacity="1" d="M 1794.101562 1199.078125 L 1472.488281 1199.078125 L 1472.488281 982.261719 L 1794.101562 982.261719 L 1794.101562 1199.078125 "/>
<path fill-rule="nonzero" fill="rgb(89.538574%, 89.491272%, 88.967896%)" fill-opacity="1" d="M 1672.871094 1592.449219 L 1472.488281 1592.449219 L 1472.488281 1423.5 L 1672.871094 1423.5 L 1672.871094 1592.449219 "/>
<path fill-rule="nonzero" fill="rgb(89.538574%, 89.491272%, 88.967896%)" fill-opacity="1" d="M 1918.851562 1592.449219 L 1718.46875 1592.449219 L 1718.46875 1423.5 L 1918.851562 1423.5 L 1918.851562 1592.449219 "/>
<path fill-rule="nonzero" fill="rgb(89.538574%, 89.491272%, 88.967896%)" fill-opacity="1" d="M 2164.839844 1592.449219 L 1964.449219 1592.449219 L 1964.449219 1423.5 L 2164.839844 1423.5 L 2164.839844 1592.449219 "/>
<path fill-rule="nonzero" fill="rgb(89.538574%, 89.491272%, 88.967896%)" fill-opacity="1" d="M 1843.21875 1199.078125 L 2164.839844 1199.078125 L 2164.839844 982.261719 L 1843.21875 982.261719 Z M 1843.21875 1199.078125 "/>
<path fill-rule="nonzero" fill="rgb(89.538574%, 89.491272%, 88.967896%)" fill-opacity="1" d="M 2535.570312 1199.078125 L 2213.949219 1199.078125 L 2213.949219 982.261719 L 2535.570312 982.261719 L 2535.570312 1199.078125 "/>
<path fill-rule="nonzero" fill="rgb(89.538574%, 89.491272%, 88.967896%)" fill-opacity="1" d="M 2164.839844 1273.328125 L 1472.488281 1273.328125 L 1472.488281 1246.628906 L 2164.839844 1246.628906 L 2164.839844 1273.328125 "/>
<path fill-rule="nonzero" fill="rgb(89.538574%, 89.491272%, 88.967896%)" fill-opacity="1" d="M 2164.839844 1313.320312 L 1472.488281 1313.320312 L 1472.488281 1286.621094 L 2164.839844 1286.621094 L 2164.839844 1313.320312 "/>
<path fill-rule="nonzero" fill="rgb(89.538574%, 89.491272%, 88.967896%)" fill-opacity="1" d="M 2164.839844 1353.320312 L 1472.488281 1353.320312 L 1472.488281 1326.621094 L 2164.839844 1326.621094 L 2164.839844 1353.320312 "/>
<path fill-rule="nonzero" fill="rgb(89.538574%, 89.491272%, 88.967896%)" fill-opacity="1" d="M 2164.839844 1393.320312 L 1472.488281 1393.320312 L 1472.488281 1366.621094 L 2164.839844 1366.621094 L 2164.839844 1393.320312 "/>
<path fill-rule="nonzero" fill="rgb(34.188843%, 53.227234%, 80.796814%)" fill-opacity="1" d="M 1472.488281 934.519531 L 2215.691406 934.519531 L 2215.691406 532.375 L 1472.488281 532.375 Z M 1472.488281 934.519531 "/>
<path fill-rule="nonzero" fill="rgb(89.66217%, 13.441467%, 19.688416%)" fill-opacity="1" d="M 2381.890625 637.691406 L 2245.070312 637.691406 L 2245.070312 531.300781 L 2381.890625 531.300781 L 2381.890625 637.691406 "/>
<path fill-rule="nonzero" fill="rgb(100%, 100%, 100%)" fill-opacity="1" d="M 2300.988281 557.429688 L 2300.988281 608.601562 L 2336.921875 583.019531 Z M 2300.988281 557.429688 "/>
<path fill-rule="nonzero" fill="rgb(92.105103%, 92.001343%, 91.596985%)" fill-opacity="1" d="M 2535.570312 557.328125 L 2401.511719 557.328125 L 2401.511719 532.320312 L 2535.570312 532.320312 L 2535.570312 557.328125 "/>
<path fill-rule="nonzero" fill="rgb(92.105103%, 92.001343%, 91.596985%)" fill-opacity="1" d="M 2535.570312 595.519531 L 2401.511719 595.519531 L 2401.511719 570.511719 L 2535.570312 570.511719 L 2535.570312 595.519531 "/>
<path fill-rule="nonzero" fill="rgb(89.66217%, 13.441467%, 19.688416%)" fill-opacity="1" d="M 2381.890625 786.109375 L 2245.070312 786.109375 L 2245.070312 679.710938 L 2381.890625 679.710938 L 2381.890625 786.109375 "/>
<path fill-rule="nonzero" fill="rgb(92.105103%, 92.001343%, 91.596985%)" fill-opacity="1" d="M 2535.570312 704.71875 L 2401.511719 704.71875 L 2401.511719 679.710938 L 2535.570312 679.710938 L 2535.570312 704.71875 "/>
<path fill-rule="nonzero" fill="rgb(92.105103%, 92.001343%, 91.596985%)" fill-opacity="1" d="M 2535.570312 742.910156 L 2401.511719 742.910156 L 2401.511719 717.898438 L 2535.570312 717.898438 L 2535.570312 742.910156 "/>
<path fill-rule="nonzero" fill="rgb(89.66217%, 13.441467%, 19.688416%)" fill-opacity="1" d="M 2381.890625 934.519531 L 2245.070312 934.519531 L 2245.070312 828.121094 L 2381.890625 828.121094 L 2381.890625 934.519531 "/>
<path fill-rule="nonzero" fill="rgb(92.105103%, 92.001343%, 91.596985%)" fill-opacity="1" d="M 2535.570312 853.128906 L 2401.511719 853.128906 L 2401.511719 828.121094 L 2535.570312 828.121094 L 2535.570312 853.128906 "/>
<path fill-rule="nonzero" fill="rgb(92.105103%, 92.001343%, 91.596985%)" fill-opacity="1" d="M 2535.570312 891.320312 L 2401.511719 891.320312 L 2401.511719 866.308594 L 2535.570312 866.308594 L 2535.570312 891.320312 "/>
<path fill-rule="nonzero" fill="rgb(100%, 100%, 100%)" fill-opacity="1" d="M 2300.988281 706.789062 L 2300.988281 757.949219 L 2336.921875 732.371094 Z M 2300.988281 706.789062 "/>
<path fill-rule="nonzero" fill="rgb(100%, 100%, 100%)" fill-opacity="1" d="M 2300.988281 856.140625 L 2300.988281 907.300781 L 2336.921875 881.71875 Z M 2300.988281 856.140625 "/>
<path fill-rule="nonzero" fill="rgb(70.669556%, 78.071594%, 87.028503%)" fill-opacity="1" d="M 2366.359375 1353.171875 L 2215.691406 1353.171875 L 2215.691406 1246.769531 L 2366.359375 1246.769531 L 2366.359375 1353.171875 "/>
<path fill-rule="nonzero" fill="rgb(92.105103%, 92.001343%, 91.596985%)" fill-opacity="1" d="M 2535.570312 1271.78125 L 2387.949219 1271.78125 L 2387.949219 1246.769531 L 2535.570312 1246.769531 L 2535.570312 1271.78125 "/>
<path fill-rule="nonzero" fill="rgb(92.105103%, 92.001343%, 91.596985%)" fill-opacity="1" d="M 2535.570312 1312.480469 L 2387.949219 1312.480469 L 2387.949219 1287.46875 L 2535.570312 1287.46875 L 2535.570312 1312.480469 "/>
<path fill-rule="nonzero" fill="rgb(92.105103%, 92.001343%, 91.596985%)" fill-opacity="1" d="M 2535.570312 1352.46875 L 2387.949219 1352.46875 L 2387.949219 1327.46875 L 2535.570312 1327.46875 L 2535.570312 1352.46875 "/>
<path fill-rule="nonzero" fill="rgb(70.669556%, 78.071594%, 87.028503%)" fill-opacity="1" d="M 2366.359375 1486.511719 L 2215.691406 1486.511719 L 2215.691406 1380.121094 L 2366.359375 1380.121094 L 2366.359375 1486.511719 "/>
<path fill-rule="nonzero" fill="rgb(92.105103%, 92.001343%, 91.596985%)" fill-opacity="1" d="M 2535.570312 1405.121094 L 2387.949219 1405.121094 L 2387.949219 1380.121094 L 2535.570312 1380.121094 L 2535.570312 1405.121094 "/>
<path fill-rule="nonzero" fill="rgb(92.105103%, 92.001343%, 91.596985%)" fill-opacity="1" d="M 2535.570312 1445.820312 L 2387.949219 1445.820312 L 2387.949219 1420.808594 L 2535.570312 1420.808594 L 2535.570312 1445.820312 "/>
<path fill-rule="nonzero" fill="rgb(92.105103%, 92.001343%, 91.596985%)" fill-opacity="1" d="M 2535.570312 1485.820312 L 2387.949219 1485.820312 L 2387.949219 1460.808594 L 2535.570312 1460.808594 L 2535.570312 1485.820312 "/>
<path fill-rule="nonzero" fill="rgb(92.105103%, 92.001343%, 91.596985%)" fill-opacity="1" d="M 2535.570312 1549.71875 L 2217.21875 1549.71875 L 2217.21875 1514.101562 L 2535.570312 1514.101562 L 2535.570312 1549.71875 "/>
<path fill-rule="nonzero" fill="rgb(92.105103%, 92.001343%, 91.596985%)" fill-opacity="1" d="M 2535.570312 1592.449219 L 2217.21875 1592.449219 L 2217.21875 1559.128906 L 2535.570312 1559.128906 L 2535.570312 1592.449219 "/>
<path fill-rule="nonzero" fill="rgb(25.840759%, 35.630798%, 49.606323%)" fill-opacity="1" d="M 1867.699219 870.71875 L 1825.101562 870.71875 C 1823.75 870.71875 1822.648438 869.621094 1822.648438 868.261719 L 1822.648438 844.148438 C 1822.648438 843.011719 1821.851562 842.03125 1820.738281 841.761719 C 1809.03125 838.988281 1798.03125 834.359375 1788.078125 828.191406 C 1787.679688 827.941406 1787.230469 827.820312 1786.769531 827.820312 C 1786.140625 827.820312 1785.511719 828.058594 1785.039062 828.53125 L 1767.960938 845.609375 C 1767.480469 846.089844 1766.859375 846.328125 1766.230469 846.328125 C 1765.601562 846.328125 1764.96875 846.089844 1764.488281 845.609375 L 1734.371094 815.488281 C 1733.410156 814.539062 1733.410156 812.980469 1734.371094 812.019531 L 1751.449219 794.949219 C 1752.261719 794.128906 1752.390625 792.878906 1751.789062 791.898438 C 1745.640625 781.949219 1741 770.960938 1738.230469 759.25 C 1737.960938 758.140625 1736.980469 757.339844 1735.828125 757.339844 L 1711.71875 757.339844 C 1710.359375 757.339844 1709.261719 756.238281 1709.261719 754.890625 L 1709.261719 712.289062 C 1709.261719 710.941406 1710.359375 709.828125 1711.71875 709.828125 L 1735.828125 709.828125 C 1736.980469 709.828125 1737.960938 709.039062 1738.230469 707.929688 C 1741 696.21875 1745.640625 685.21875 1751.789062 675.269531 C 1752.390625 674.289062 1752.261719 673.039062 1751.449219 672.21875 L 1734.371094 655.140625 C 1733.410156 654.191406 1733.410156 652.628906 1734.371094 651.671875 L 1764.488281 621.558594 C 1764.96875 621.078125 1765.601562 620.839844 1766.230469 620.839844 C 1766.859375 620.839844 1767.480469 621.078125 1767.960938 621.558594 L 1785.050781 638.640625 C 1785.519531 639.109375 1786.148438 639.359375 1786.78125 639.359375 C 1787.230469 639.359375 1787.691406 639.230469 1788.089844 638.980469 C 1798.039062 632.820312 1809.03125 628.191406 1820.738281 625.410156 C 1821.851562 625.148438 1822.648438 624.160156 1822.648438 623.019531 L 1822.648438 598.910156 C 1822.648438 597.550781 1823.75 596.449219 1825.101562 596.449219 L 1867.699219 596.449219 C 1869.050781 596.449219 1870.148438 597.550781 1870.148438 598.910156 L 1870.148438 623.019531 C 1870.148438 624.160156 1870.949219 625.148438 1872.058594 625.410156 C 1883.769531 628.191406 1894.761719 632.820312 1904.710938 638.980469 C 1905.121094 639.230469 1905.570312 639.359375 1906.019531 639.359375 C 1906.660156 639.359375 1907.28125 639.109375 1907.761719 638.640625 L 1924.839844 621.558594 C 1925.320312 621.078125 1925.949219 620.839844 1926.578125 620.839844 C 1927.199219 620.839844 1927.828125 621.078125 1928.308594 621.558594 L 1958.429688 651.671875 C 1959.390625 652.628906 1959.390625 654.191406 1958.429688 655.140625 L 1941.351562 672.230469 C 1940.539062 673.039062 1940.398438 674.300781 1941.011719 675.28125 C 1947.171875 685.230469 1951.800781 696.21875 1954.570312 707.929688 C 1954.839844 709.039062 1955.820312 709.828125 1956.960938 709.828125 L 1981.078125 709.828125 C 1982.441406 709.828125 1983.539062 710.941406 1983.539062 712.289062 L 1983.539062 754.890625 C 1983.539062 756.238281 1982.441406 757.339844 1981.078125 757.339844 L 1956.960938 757.339844 C 1955.820312 757.339844 1954.839844 758.140625 1954.570312 759.25 C 1952.480469 768.078125 1949.328125 776.5 1945.269531 784.371094 L 1911.140625 752.710938 C 1912.929688 746.648438 1913.898438 740.230469 1913.898438 733.578125 C 1913.898438 725.230469 1912.371094 717.21875 1909.578125 709.828125 C 1909.171875 708.71875 1908.71875 707.628906 1908.25 706.539062 C 1901.449219 691.039062 1888.988281 678.570312 1873.480469 671.75 C 1872.390625 671.269531 1871.28125 670.820312 1870.148438 670.398438 C 1862.769531 667.609375 1854.75 666.089844 1846.398438 666.089844 C 1838.039062 666.089844 1830.039062 667.609375 1822.648438 670.398438 C 1821.25 670.929688 1819.878906 671.5 1818.53125 672.121094 C 1803.679688 678.871094 1791.691406 690.851562 1784.921875 705.699219 C 1784.320312 707.058594 1783.730469 708.429688 1783.210938 709.828125 C 1780.421875 717.21875 1778.898438 725.230469 1778.898438 733.578125 C 1778.898438 741.949219 1780.421875 749.949219 1783.210938 757.339844 C 1783.738281 758.75 1784.320312 760.121094 1784.921875 761.46875 C 1791.691406 776.320312 1803.671875 788.300781 1818.519531 795.058594 C 1819.859375 795.671875 1821.25 796.238281 1822.648438 796.78125 C 1830.039062 799.570312 1838.039062 801.089844 1846.398438 801.089844 C 1853.039062 801.089844 1859.460938 800.128906 1865.53125 798.328125 L 1897.179688 832.460938 C 1889.308594 836.53125 1880.878906 839.671875 1872.058594 841.761719 C 1870.949219 842.03125 1870.148438 843.011719 1870.148438 844.148438 L 1870.148438 868.261719 C 1870.148438 869.621094 1869.050781 870.71875 1867.699219 870.71875 "/>
<path fill-rule="nonzero" fill="rgb(25.840759%, 35.630798%, 49.606323%)" fill-opacity="1" d="M 1949.671875 863.011719 C 1945.328125 863.011719 1941.308594 861.578125 1938.371094 858.640625 L 1871.320312 786.351562 C 1868.179688 782.960938 1863.789062 781.039062 1859.261719 781.039062 C 1858.238281 781.039062 1857.21875 781.140625 1856.199219 781.339844 C 1853.171875 781.929688 1850.089844 782.21875 1847.019531 782.21875 C 1834.730469 782.21875 1822.441406 777.53125 1813.070312 768.160156 C 1799.03125 754.121094 1795.5 733.550781 1802.480469 716.230469 L 1840.429688 754.179688 L 1864.949219 751.898438 L 1867.230469 727.378906 L 1829.390625 689.539062 C 1835.039062 687.308594 1841.03125 686.199219 1847.019531 686.199219 C 1859.308594 686.199219 1871.589844 690.878906 1880.96875 700.261719 C 1892.691406 711.980469 1897.078125 728.261719 1894.148438 743.390625 C 1893.070312 748.949219 1895.011719 754.671875 1899.160156 758.511719 L 1971.449219 825.558594 C 1978.5 832.609375 1976.828125 845.828125 1967.730469 854.921875 L 1967.730469 854.929688 C 1962.429688 860.230469 1955.730469 863.011719 1949.671875 863.011719 M 1950.21875 827.308594 C 1947.640625 827.308594 1945.050781 828.300781 1943.078125 830.269531 C 1939.140625 834.210938 1939.140625 840.609375 1943.078125 844.550781 C 1945.050781 846.53125 1947.640625 847.511719 1950.21875 847.511719 C 1952.808594 847.511719 1955.390625 846.519531 1957.359375 844.550781 C 1961.300781 840.609375 1961.308594 834.210938 1957.359375 830.269531 C 1955.390625 828.300781 1952.808594 827.308594 1950.21875 827.308594 "/>
<path fill-rule="nonzero" fill="rgb(100%, 100%, 100%)" fill-opacity="1" d="M 1974.71875 703.46875 L 1950.601562 703.46875 C 1949.460938 703.46875 1948.46875 702.679688 1948.210938 701.558594 C 1945.441406 689.859375 1940.800781 678.859375 1934.648438 668.910156 C 1934.039062 667.929688 1934.171875 666.679688 1934.988281 665.871094 L 1952.058594 648.78125 C 1953.03125 647.828125 1953.03125 646.269531 1952.058594 645.308594 L 1921.949219 615.191406 C 1920.988281 614.230469 1919.429688 614.230469 1918.480469 615.191406 L 1901.390625 632.28125 C 1900.578125 633.089844 1899.328125 633.21875 1898.351562 632.621094 C 1888.398438 626.460938 1877.398438 621.820312 1865.699219 619.050781 C 1864.578125 618.789062 1863.789062 617.800781 1863.789062 616.660156 L 1863.789062 592.539062 C 1863.789062 591.179688 1862.691406 590.089844 1861.328125 590.089844 L 1818.738281 590.089844 C 1817.378906 590.089844 1816.28125 591.179688 1816.28125 592.539062 L 1816.28125 616.660156 C 1816.28125 617.800781 1815.480469 618.789062 1814.371094 619.050781 C 1802.671875 621.820312 1791.679688 626.460938 1781.730469 632.621094 C 1780.761719 633.21875 1779.5 633.089844 1778.679688 632.28125 L 1761.601562 615.191406 C 1760.640625 614.230469 1759.089844 614.230469 1758.128906 615.191406 L 1728.011719 645.308594 C 1727.050781 646.269531 1727.050781 647.828125 1728.011719 648.78125 L 1745.089844 665.859375 C 1745.890625 666.671875 1746.03125 667.929688 1745.429688 668.910156 C 1739.269531 678.859375 1734.628906 689.859375 1731.859375 701.558594 C 1731.589844 702.679688 1730.621094 703.46875 1729.46875 703.46875 L 1705.359375 703.46875 C 1704 703.46875 1702.898438 704.570312 1702.898438 705.929688 L 1702.898438 748.519531 C 1702.898438 749.878906 1704 750.980469 1705.359375 750.980469 L 1729.46875 750.980469 C 1730.621094 750.980469 1731.589844 751.78125 1731.859375 752.890625 C 1734.628906 764.589844 1739.269531 775.589844 1745.429688 785.539062 C 1746.03125 786.519531 1745.890625 787.769531 1745.089844 788.578125 L 1728.011719 805.660156 C 1727.050781 806.621094 1727.050781 808.179688 1728.011719 809.128906 L 1758.128906 839.25 C 1759.089844 840.210938 1760.640625 840.210938 1761.601562 839.25 L 1778.671875 822.171875 C 1779.488281 821.359375 1780.75 821.230469 1781.71875 821.828125 C 1791.671875 827.988281 1802.671875 832.628906 1814.371094 835.398438 C 1815.480469 835.660156 1816.28125 836.640625 1816.28125 837.789062 L 1816.28125 861.898438 C 1816.28125 863.261719 1817.378906 864.359375 1818.738281 864.359375 L 1861.328125 864.359375 C 1862.691406 864.359375 1863.789062 863.261719 1863.789062 861.898438 L 1863.789062 837.789062 C 1863.789062 836.640625 1864.578125 835.660156 1865.699219 835.398438 C 1874.519531 833.308594 1882.941406 830.160156 1890.820312 826.101562 L 1859.171875 791.960938 C 1853.089844 793.761719 1846.679688 794.730469 1840.039062 794.730469 C 1831.679688 794.730469 1823.679688 793.199219 1816.28125 790.410156 C 1814.878906 789.878906 1813.5 789.308594 1812.160156 788.699219 C 1797.308594 781.929688 1785.328125 769.960938 1778.558594 755.109375 C 1777.949219 753.761719 1777.378906 752.378906 1776.851562 750.980469 C 1774.058594 743.589844 1772.53125 735.578125 1772.53125 727.21875 C 1772.53125 718.871094 1774.058594 710.859375 1776.851562 703.46875 C 1777.371094 702.070312 1777.949219 700.691406 1778.558594 699.328125 C 1785.328125 684.488281 1797.320312 672.511719 1812.160156 665.75 C 1813.519531 665.140625 1814.890625 664.570312 1816.28125 664.039062 C 1823.679688 661.25 1831.679688 659.730469 1840.039062 659.730469 C 1848.390625 659.730469 1856.398438 661.25 1863.789062 664.039062 C 1864.921875 664.460938 1866.03125 664.910156 1867.121094 665.390625 C 1882.621094 672.210938 1895.078125 684.679688 1901.890625 700.179688 C 1902.359375 701.269531 1902.800781 702.359375 1903.21875 703.46875 C 1906.011719 710.859375 1907.53125 718.871094 1907.53125 727.21875 C 1907.53125 733.859375 1906.570312 740.289062 1904.769531 746.351562 L 1938.898438 778.011719 C 1942.96875 770.128906 1946.121094 761.710938 1948.210938 752.890625 C 1948.46875 751.78125 1949.460938 750.980469 1950.601562 750.980469 L 1974.71875 750.980469 C 1976.078125 750.980469 1977.171875 749.878906 1977.171875 748.519531 L 1977.171875 705.929688 C 1977.171875 704.570312 1976.078125 703.46875 1974.71875 703.46875 "/>
<path fill-rule="nonzero" fill="rgb(100%, 100%, 100%)" fill-opacity="1" d="M 1951 838.191406 C 1947.058594 842.128906 1940.660156 842.128906 1936.71875 838.191406 C 1932.769531 834.25 1932.78125 827.851562 1936.71875 823.910156 C 1940.660156 819.96875 1947.058594 819.96875 1951 823.910156 C 1954.941406 827.851562 1954.941406 834.25 1951 838.191406 Z M 1823.019531 683.179688 L 1860.871094 721.019531 L 1858.589844 745.539062 L 1834.070312 747.808594 L 1796.121094 709.871094 C 1789.140625 727.191406 1792.671875 747.761719 1806.710938 761.800781 C 1818.429688 773.519531 1834.699219 777.910156 1849.839844 774.980469 C 1855.398438 773.898438 1861.109375 775.839844 1864.960938 779.988281 L 1932 852.28125 C 1939.058594 859.328125 1952.269531 857.660156 1961.371094 848.558594 C 1970.46875 839.46875 1972.140625 826.25 1965.078125 819.199219 L 1892.800781 752.148438 C 1888.648438 748.300781 1886.710938 742.589844 1887.78125 737.03125 C 1890.71875 721.890625 1886.328125 705.621094 1874.601562 693.898438 C 1860.660156 679.949219 1840.269531 676.378906 1823.019531 683.179688 "/>
<path fill-rule="nonzero" fill="rgb(12.277222%, 9.706116%, 10.072327%)" fill-opacity="1" d="M 2003.890625 1165.171875 L 1991.230469 1165.171875 L 1991.230469 0 L 2003.890625 0 L 2003.890625 1165.171875 "/>
<path fill-rule="nonzero" fill="rgb(12.277222%, 9.706116%, 10.072327%)" fill-opacity="1" d="M 1838.570312 1255.679688 L 1711.988281 1387.539062 C 1700.421875 1399.589844 1699 1418.148438 1708.609375 1431.820312 L 1802.570312 1565.5 C 1804.21875 1567.851562 1807.828125 1565.78125 1806.640625 1563.171875 L 1742.519531 1422.53125 C 1740.21875 1417.480469 1741.601562 1411.511719 1745.890625 1407.980469 L 1874.179688 1302.480469 L 1838.570312 1255.679688 "/>
<path fill-rule="nonzero" fill="rgb(12.277222%, 9.706116%, 10.072327%)" fill-opacity="1" d="M 1821.25 1203.039062 L 1639.300781 1220.519531 C 1622.671875 1222.109375 1609.5 1235.261719 1607.878906 1251.890625 L 1591.980469 1414.519531 C 1591.699219 1417.371094 1595.800781 1418.160156 1596.601562 1415.398438 L 1639.640625 1266.960938 C 1641.191406 1261.621094 1646.128906 1257.988281 1651.679688 1258.121094 L 1817.75 1261.75 L 1821.25 1203.039062 "/>
<path fill-rule="nonzero" fill="rgb(12.277222%, 9.706116%, 10.072327%)" fill-opacity="1" d="M 1821.25 1185.621094 L 1643.289062 1154.328125 C 1630.148438 1152.019531 1616.628906 1153.851562 1604.578125 1159.578125 L 1468.378906 1224.289062 C 1463.871094 1226.441406 1460.179688 1220.160156 1464.25 1217.261719 L 1598.589844 1121.628906 C 1614.871094 1110.039062 1634.648438 1104.449219 1654.578125 1105.808594 L 1821.25 1117.160156 L 1821.25 1185.621094 "/>
<path fill-rule="nonzero" fill="rgb(12.277222%, 9.706116%, 10.072327%)" fill-opacity="1" d="M 1807.949219 1126.46875 L 1646.320312 1045.679688 C 1634.398438 1039.710938 1620.910156 1037.609375 1607.730469 1039.660156 L 1458.71875 1062.800781 C 1453.78125 1063.570312 1452.039062 1056.5 1456.769531 1054.878906 L 1612.828125 1001.578125 C 1631.730469 995.121094 1652.289062 995.410156 1671 1002.398438 L 1827.488281 1060.859375 L 1807.949219 1126.46875 "/>
<path fill-rule="nonzero" fill="rgb(12.277222%, 9.706116%, 10.072327%)" fill-opacity="1" d="M 2161.429688 1255.679688 L 2288.011719 1387.539062 C 2299.578125 1399.589844 2301 1418.148438 2291.390625 1431.820312 L 2197.429688 1565.5 C 2195.78125 1567.851562 2192.171875 1565.78125 2193.359375 1563.171875 L 2257.480469 1422.53125 C 2259.789062 1417.480469 2258.398438 1411.511719 2254.109375 1407.980469 L 2125.820312 1302.480469 L 2161.429688 1255.679688 "/>
<path fill-rule="nonzero" fill="rgb(12.277222%, 9.706116%, 10.072327%)" fill-opacity="1" d="M 2178.75 1203.039062 L 2360.699219 1220.519531 C 2377.328125 1222.109375 2390.5 1235.261719 2392.128906 1251.890625 L 2408.019531 1414.519531 C 2408.300781 1417.371094 2404.199219 1418.160156 2403.398438 1415.398438 L 2360.359375 1266.960938 C 2358.808594 1261.621094 2353.871094 1257.988281 2348.320312 1258.121094 L 2182.25 1261.75 L 2178.75 1203.039062 "/>
<path fill-rule="nonzero" fill="rgb(12.277222%, 9.706116%, 10.072327%)" fill-opacity="1" d="M 2178.75 1185.621094 L 2356.710938 1154.328125 C 2369.851562 1152.019531 2383.371094 1153.851562 2395.421875 1159.578125 L 2531.621094 1224.289062 C 2536.128906 1226.441406 2539.820312 1220.160156 2535.75 1217.261719 L 2401.410156 1121.628906 C 2385.128906 1110.039062 2365.351562 1104.449219 2345.421875 1105.808594 L 2178.75 1117.160156 L 2178.75 1185.621094 "/>
<path fill-rule="nonzero" fill="rgb(12.277222%, 9.706116%, 10.072327%)" fill-opacity="1" d="M 2192.050781 1126.46875 L 2353.679688 1045.679688 C 2365.601562 1039.710938 2379.089844 1037.609375 2392.269531 1039.660156 L 2541.28125 1062.800781 C 2546.21875 1063.570312 2547.960938 1056.5 2543.230469 1054.878906 L 2387.179688 1001.578125 C 2368.269531 995.121094 2347.710938 995.410156 2329 1002.398438 L 2172.511719 1060.859375 L 2192.050781 1126.46875 "/>
<path fill-rule="nonzero" fill="rgb(17.004395%, 14.505005%, 15.455627%)" fill-opacity="1" d="M 2219.480469 1189 C 2219.480469 1310.21875 2121.210938 1408.480469 2000 1408.480469 C 1878.789062 1408.480469 1780.519531 1310.21875 1780.519531 1189 C 1780.519531 1067.789062 1878.789062 969.53125 2000 969.53125 C 2121.210938 969.53125 2219.480469 1067.789062 2219.480469 1189 "/>
<path fill-rule="nonzero" fill="rgb(95.68634%, 95.608521%, 95.628357%)" fill-opacity="1" d="M 1990.339844 1293.800781 C 1990.339844 1324.410156 1965.519531 1349.230469 1934.910156 1349.230469 C 1904.300781 1349.230469 1879.480469 1324.410156 1879.480469 1293.800781 C 1879.480469 1263.191406 1904.300781 1238.378906 1934.910156 1238.378906 C 1965.519531 1238.378906 1990.339844 1263.191406 1990.339844 1293.800781 "/>
<path fill-rule="nonzero" fill="rgb(12.277222%, 9.706116%, 10.072327%)" fill-opacity="1" d="M 1972.480469 1293.800781 C 1972.480469 1300.46875 1967.078125 1305.871094 1960.410156 1305.871094 C 1953.738281 1305.871094 1948.339844 1300.46875 1948.339844 1293.800781 C 1948.339844 1287.140625 1953.738281 1281.730469 1960.410156 1281.730469 C 1967.078125 1281.730469 1972.480469 1287.140625 1972.480469 1293.800781 "/>
<path fill-rule="nonzero" fill="rgb(95.68634%, 95.608521%, 95.628357%)" fill-opacity="1" d="M 2120.519531 1293.800781 C 2120.519531 1324.410156 2095.699219 1349.230469 2065.089844 1349.230469 C 2034.480469 1349.230469 2009.671875 1324.410156 2009.671875 1293.800781 C 2009.671875 1263.191406 2034.480469 1238.378906 2065.089844 1238.378906 C 2095.699219 1238.378906 2120.519531 1263.191406 2120.519531 1293.800781 "/>
<path fill-rule="nonzero" fill="rgb(12.277222%, 9.706116%, 10.072327%)" fill-opacity="1" d="M 2051.941406 1293.800781 C 2051.941406 1300.46875 2046.53125 1305.871094 2039.871094 1305.871094 C 2033.199219 1305.871094 2027.800781 1300.46875 2027.800781 1293.800781 C 2027.800781 1287.140625 2033.199219 1281.730469 2039.871094 1281.730469 C 2046.53125 1281.730469 2051.941406 1287.140625 2051.941406 1293.800781 "/>
<path fill-rule="nonzero" fill="rgb(22.10083%, 19.010925%, 19.958496%)" fill-opacity="1" d="M 2118.789062 1092.640625 C 2103.601562 1092.640625 2084.058594 1086.941406 2064.898438 1075.878906 C 2030.609375 1056.078125 2010.550781 1026.621094 2020.101562 1010.070312 C 2024.308594 1002.769531 2033.601562 999.210938 2045.601562 999.210938 C 2060.789062 999.210938 2080.328125 1004.910156 2099.488281 1015.96875 C 2133.78125 1035.769531 2153.839844 1065.230469 2144.289062 1081.78125 C 2140.078125 1089.078125 2130.789062 1092.640625 2118.789062 1092.640625 "/>
</svg>
