<?xml version="1.0" encoding="utf-8"?>
<!-- Generator: Adobe Illustrator 27.5.0, SVG Export Plug-In . SVG Version: 6.00 Build 0)  -->
<svg version="1.1" xmlns="http://www.w3.org/2000/svg" xmlns:xlink="http://www.w3.org/1999/xlink" x="0px" y="0px"
	 viewBox="0 0 750 500" style="enable-background:new 0 0 750 500;" xml:space="preserve">
<g id="BACKGROUND">
	<rect y="0.475" style="fill:#E9EFFD;" width="750" height="499.05"/>
</g>
<g id="OBJECTS">
	<g>
		<g>
			<g>
				<g>
					<g>
						<path style="fill:none;stroke:#A9C3FA;stroke-width:1.8802;stroke-miterlimit:10;" d="M528.672,95.561
							c1.282,10.988,1.997,23.221,1.997,36.114c0,47.709-9.79,86.385-21.867,86.385c-12.077,0-21.867-38.676-21.867-86.385
							c0-16.605,1.186-32.116,3.241-45.282"/>
						
							<ellipse transform="matrix(0.5353 -0.8447 0.8447 0.5353 125.2172 490.9526)" style="fill:none;stroke:#A9C3FA;stroke-width:1.8802;stroke-miterlimit:10;" cx="508.802" cy="131.675" rx="21.867" ry="86.385"/>
						
							<ellipse transform="matrix(0.8447 -0.5353 0.5353 0.8447 8.5518 292.8192)" style="fill:none;stroke:#A9C3FA;stroke-width:1.8802;stroke-miterlimit:10;" cx="508.802" cy="131.675" rx="86.385" ry="21.867"/>
					</g>
					<path style="fill:none;stroke:#A9C3FA;stroke-width:2.5699;stroke-miterlimit:10;" d="M491.975,89.111
						c5.263-33.711,14.696-54.495,25.458-54.495c10.541,0,19.807,21.555,25.128,54.116"/>
				</g>
				<g>
					<g>
						<path style="fill:#0055BC;" d="M498.559,129.063c-2.023,5.288,0.623,11.216,5.912,13.24c5.289,2.023,11.216-0.623,13.24-5.912
							c2.023-5.289-0.623-11.216-5.912-13.24C506.51,121.128,500.583,123.775,498.559,129.063z"/>
						<path style="fill:#0076D9;" d="M503.769,127.169c-0.414,1.081,0.127,2.293,1.209,2.707c1.081,0.414,2.293-0.127,2.707-1.209
							c0.414-1.081-0.128-2.293-1.209-2.707C505.395,125.547,504.183,126.088,503.769,127.169z"/>
					</g>
					<g>
						<path style="fill:#0055BC;" d="M417.009,130.19c-1.281,3.348,0.395,7.1,3.743,8.381c3.348,1.281,7.1-0.395,8.381-3.742
							c1.281-3.348-0.395-7.1-3.742-8.381C422.043,125.166,418.29,126.842,417.009,130.19z"/>
						<path style="fill:#0076D9;" d="M420.307,128.99c-0.262,0.685,0.081,1.452,0.765,1.714c0.685,0.262,1.452-0.081,1.714-0.765
							c0.262-0.685-0.081-1.452-0.765-1.714C421.336,127.963,420.569,128.306,420.307,128.99z"/>
					</g>
					<g>
						<path style="fill:#0055BC;" d="M580.807,132.265c-0.842,2.202,0.26,4.669,2.461,5.512c2.202,0.842,4.669-0.259,5.512-2.461
							s-0.259-4.669-2.461-5.512C584.117,128.961,581.65,130.063,580.807,132.265z"/>
						<path style="fill:#0076D9;" d="M582.976,131.476c-0.172,0.45,0.053,0.955,0.503,1.127c0.45,0.172,0.955-0.053,1.127-0.503
							c0.172-0.45-0.053-0.955-0.503-1.127C583.653,130.801,583.148,131.026,582.976,131.476z"/>
					</g>
					<g>
						<path style="fill:#1F0A00;" d="M535.569,195.371c-1.307,3.415,0.403,7.242,3.817,8.549c3.415,1.307,7.242-0.402,8.549-3.817
							c1.307-3.415-0.403-7.242-3.817-8.549C540.703,190.247,536.875,191.956,535.569,195.371z"/>
						<path style="fill:#494243;" d="M538.932,194.147c-0.267,0.698,0.082,1.481,0.781,1.748c0.698,0.267,1.481-0.082,1.748-0.78
							c0.267-0.698-0.082-1.481-0.781-1.748C539.982,193.1,539.2,193.449,538.932,194.147z"/>
					</g>
					<g>
						<path style="fill:#1F0A00;" d="M452.503,48.66c-0.885,2.312,0.272,4.903,2.585,5.788c2.312,0.885,4.904-0.273,5.788-2.585
							c0.885-2.312-0.273-4.903-2.585-5.788C455.979,45.191,453.388,46.348,452.503,48.66z"/>
						<path style="fill:#494243;" d="M454.781,47.832c-0.181,0.473,0.056,1.003,0.529,1.183c0.473,0.181,1.003-0.056,1.184-0.528
							c0.181-0.473-0.056-1.003-0.529-1.183C455.491,47.123,454.962,47.359,454.781,47.832z"/>
					</g>
					<g>
						<path style="fill:#0055BC;" d="M524.382,52.633c-2.06,5.384,0.635,11.418,6.018,13.478c5.384,2.06,11.418-0.635,13.478-6.018
							c2.06-5.384-0.635-11.418-6.018-13.478C532.476,44.554,526.442,47.249,524.382,52.633z"/>
						<path style="fill:#0076D9;" d="M529.685,50.704c-0.421,1.101,0.13,2.335,1.23,2.756c1.101,0.421,2.335-0.13,2.756-1.231
							s-0.13-2.335-1.231-2.756C531.34,49.052,530.106,49.603,529.685,50.704z"/>
					</g>
				</g>
			</g>
			<g>
				<g>
					
						<ellipse transform="matrix(0.3306 -0.9438 0.9438 0.3306 291.2279 529.0225)" style="opacity:0.48;fill:#FCFCFC;" cx="518.552" cy="59.208" rx="39.29" ry="39.29"/>
					
						<ellipse transform="matrix(0.3306 -0.9438 0.9438 0.3306 291.2279 529.0225)" style="fill:none;stroke:#1F0A00;stroke-width:5;stroke-miterlimit:10;" cx="518.552" cy="59.208" rx="39.29" ry="39.29"/>
					
						<rect x="567.265" y="68.376" transform="matrix(0.5353 -0.8447 0.8447 0.5353 187.2192 524.7233)" style="fill:#1F0A00;" width="6.458" height="47.67"/>
					
						<rect x="593.193" y="72.445" transform="matrix(0.5353 -0.8447 0.8447 0.5353 185.2591 556.3466)" style="fill:#1F0A00;" width="10.123" height="74.719"/>
				</g>
				<g>
					<g>
						<g>
							<polygon style="fill:#FFBDA8;" points="626.48,52.581 630.33,66.866 618.906,68.929 617.358,53.254 							"/>
							<polygon style="fill:#1F0A00;" points="622.601,57.852 618.484,64.657 617.734,57.066 							"/>
							<path style="fill:#FFBDA8;" d="M619.885,34.907c0,0-10.54-0.793-10.411,8.301c0.06,4.197,0.353,8.439,0.652,11.791
								c0.317,3.554,3.641,6.044,7.145,5.37l10.31-1.984L619.885,34.907z"/>
							<path style="fill:#FFBDA8;" d="M609.948,48.496l-1.598,3.357c-0.115,0.328,0.144,0.665,0.49,0.64l2.116-0.156L609.948,48.496
								z"/>
							<path style="fill:#214380;" d="M615.437,39.933c0,0-1.556,4.634,3.09,9.327l2.37,0.119c0,0-2.423,7.067,6.475,5.841
								c0,0,4.6-7.021,7.087-10.298c0,0,2.443-4.733-2.426-6.214c0,0,2.523-4.501-5.725-5.352c-8.248-0.851-7.931-6.014-13.319-4.22
								C607.603,30.93,603.766,40.063,615.437,39.933z"/>
							<g>
								<path style="fill:#FFBDA8;" d="M624.623,47.183c0.212,1.95-1.197,3.702-3.147,3.914c-1.95,0.212-3.703-1.197-3.914-3.147
									c-0.212-1.95,1.197-3.703,3.147-3.914C622.659,43.824,624.411,45.233,624.623,47.183z"/>
								
									<path style="fill:none;stroke:#000000;stroke-width:0.3063;stroke-linecap:round;stroke-linejoin:round;stroke-miterlimit:10;" d="
									M619.563,48.496c0,0-0.323-2.673,3.038-2.428"/>
							</g>
							<path style="fill:#214380;" d="M629.505,34.016c0,0,6.459,2.008,5.567,8.831c-0.892,6.823-10.736-1.557-10.736-1.557
								L629.505,34.016z"/>
							<path style="fill:#1F0A00;" d="M608.745,44.28c0,0-0.278,0.875,0.879,1.022c0.878,0.112,1.927,0.506,2.423,0.691
								c0.281,0.105,0.602,0.005,0.76-0.236l0,0c0.127-0.195,0.123-0.442-0.016-0.629c-0.284-0.381-1.374-1.303-2.441-1.452
								C608.978,43.484,608.745,44.28,608.745,44.28z"/>
							
								<path style="fill:none;stroke:#000000;stroke-width:0.3063;stroke-linecap:round;stroke-linejoin:round;stroke-miterlimit:10;" d="
								M612.189,54.166c0,0-1.096,0.856-2.119,0.188"/>
						</g>
						<g>
							<g>
								<g>
									<polygon style="fill:#FFBDA8;" points="614.771,236.746 612.501,208.363 602.288,210.428 605.813,234.682 									"/>
									<g>
										<g>
											<g>
												<g>
													<defs>
														<path id="XMLID_18_" d="M614.535,232.153c0,0-6.496,3.526-9.291-1.591l-17.211,10.877l29.401-0.195L614.535,232.153z"
															/>
													</defs>
													<use xlink:href="#XMLID_18_"  style="overflow:visible;fill:#101010;"/>
													<clipPath id="XMLID_00000100352451896302124310000006792764941179505807_">
														<use xlink:href="#XMLID_18_"  style="overflow:visible;"/>
													</clipPath>
												</g>
												
													<rect x="588.042" y="241.341" transform="matrix(1 -0.0066 0.0066 1 -1.5982 4.007)" style="fill:#FFFFFF;" width="29.402" height="2.791"/>
											</g>
										</g>
									</g>
								</g>
								<path style="fill:#0055BC;" d="M608.276,138.643l-8.918,33.347c-1.566,5.856-2.104,11.939-1.591,17.979l2.573,35.217
									l17.628,0.107l0.374-46.902l18.701-44.6L608.276,138.643z"/>
							</g>
							<g>
								<g>
									<polygon style="fill:#FFBDA8;" points="644.248,236.746 641.978,208.363 631.765,210.428 635.29,234.682 									"/>
									<g>
										<g>
											<g>
												<g>
													<defs>
														<path id="XMLID_19_" d="M644.012,232.153c0,0-6.496,3.526-9.291-1.591l-17.211,10.877l29.401-0.195L644.012,232.153z"
															/>
													</defs>
													<use xlink:href="#XMLID_19_"  style="overflow:visible;fill:#101010;"/>
													<clipPath id="XMLID_00000178924078880773487890000008431498286551952290_">
														<use xlink:href="#XMLID_19_"  style="overflow:visible;"/>
													</clipPath>
												</g>
												
													<rect x="617.519" y="241.341" transform="matrix(1 -0.0066 0.0066 1 -1.5976 4.2027)" style="fill:#FFFFFF;" width="29.402" height="2.791"/>
											</g>
										</g>
									</g>
								</g>
								<path style="fill:#0055BC;" d="M644.161,140.773l-3.719,39.855l6.245,44.665l-19.106-0.107l-5.12-36.253
									c-0.96-5.873-1.12-11.849-0.474-17.765l3.206-29.396L644.161,140.773z"/>
							</g>
						</g>
						<g>
							<g>
								<path style="fill:#FCFCFC;" d="M657.017,105.731c0.006-0.267,0.006-0.533-0.014-0.805c-0.018-0.245-0.049-0.486-0.093-0.729
									c-0.196-1.251-0.623-2.544-1.32-3.85c0,0-12.226-27.967-14.17-30.504c-2.721-3.551-7.836-4.148-11.305-1.325
									c-3.214,2.616-3.873,7.265-1.514,10.672l5.581,10.215l0.097,0.307l-1.809,0.948l7.828,14.328
									c-9.238,8.551-20.668,19.035-20.668,19.035l3.672,6.97l28.132-18.128c0.645-0.244,1.294-0.542,1.946-0.961v0
									c2.282-1.466,3.407-3.441,3.607-5.649C657.006,106.08,657.01,105.907,657.017,105.731z"/>
							</g>
							<g>
								<g>
									<path style="fill:#FCFCFC;" d="M631.439,65.55c-3.943,0.139-6.408,0.544-11.402,1.525
										c-6.597,1.296-10.746,6.735-10.22,13.438l2.534,38.582h29.777c0,0,2.007-34.129,1.235-43.884
										C642.937,69.837,638.325,65.308,631.439,65.55z"/>
									
										<path style="fill:none;stroke:#E6EFFF;stroke-width:0.5811;stroke-linecap:round;stroke-linejoin:round;stroke-miterlimit:10;" d="
										M643.362,80.728c0,0-0.943,31.253-1.215,37.748"/>
								</g>
								<path style="fill:#FCFCFC;" d="M612.853,113.064l-17.245,61.161c0,0,31.125,9.653,52.384,0.986
									c0,0-0.675-27.201-6.539-60.069L612.853,113.064z"/>
							</g>
							<g>
								<g>
									<g>
										<g>
											<g>
												<g>
													<path style="fill:#FFBDA8;" d="M603.669,105.26c-12.047-4.457-37.258-11.817-37.258-11.817l-0.032,5.953l31.81,16.009
														c3.861,2.165,8.378,2.723,9.711-1.498l0,0C609.021,110.357,607.161,106.552,603.669,105.26z"/>
												</g>
											</g>
										</g>
										<g>
											<path style="fill:#FFBDA8;" d="M551.615,84.884c0.256-0.439,0.814-0.599,1.264-0.361l11.052,5.704l-1.441-4.608
												c-0.311-0.477-0.16-1.117,0.332-1.404c0.4-0.233,0.908-0.16,1.225,0.176l2.217,3.725
												c0.508,0.538,0.896,1.177,1.138,1.876l1.559,4.503l-2.476,4.937l-5.42-2.372l-1.625-0.856
												c-0.957-0.504-1.714-1.319-2.145-2.311l-2.518-5.789l-2.875-1.957C551.489,85.868,551.363,85.315,551.615,84.884z"/>
										</g>
									</g>
									<path style="fill:#FCFCFC;" d="M602.038,101.951c-0.634,0.158-29.549-6.706-29.549-6.706l0.178,11.316l28.046,10.692
										L602.038,101.951z"/>
								</g>
								<g>
									<path style="fill:#FCFCFC;" d="M595.993,113.087l1.15-9.425l7.522-15.954l0.57-1.311l4.644-10.674
										c1.243-3.953,5.319-6.284,9.357-5.35c4.358,1.008,7.024,5.414,5.889,9.741c-0.813,3.098-2.94,8.174-5.255,13.547
										c-0.115,0.267-0.234,0.54-0.356,0.817c-3.123,7.116-8.318,17.432-8.318,17.432c-1.278,4.821-5.78,7.002-10.483,5.343h0
										c-0.676-0.238-1.267-0.605-1.793-1.051l0,0.005l-0.009-0.013C598.034,115.449,596.468,114.219,595.993,113.087z"/>
									
										<path style="fill:none;stroke:#E6EFFF;stroke-width:0.5811;stroke-linecap:round;stroke-linejoin:round;stroke-miterlimit:10;" d="
										M621.888,71.528c0,0,6.413,3.279,1.372,14.002l-11.427,25.689"/>
								</g>
							</g>
						</g>
					</g>
				</g>
			</g>
		</g>
		
			<line style="fill:none;stroke:#A9C3FA;stroke-width:0.9736;stroke-miterlimit:10;" x1="409.348" y1="243.643" x2="687.622" y2="243.643"/>
	</g>
	<g>
		
			<line style="fill:none;stroke:#A9C3FA;stroke-width:0.9736;stroke-miterlimit:10;" x1="62.594" y1="244.134" x2="340.868" y2="244.134"/>
		<g>
			<g>
				<g>
					<polygon style="fill:#FCFCFC;" points="241.119,192.413 275.502,194.055 271.369,146.711 254.862,145.607 					"/>
					<g>
						<g>
							<g>
								<path style="fill:#1F0A00;" d="M236.72,232.066c0,0,1.835-0.068,1.748,3.424c-0.087,3.492,0,8.643,0,8.643h-1.748V238.1
									l-5.237,6.034h-17.985c0,0,0.96-3.318,9.429-3.23L236.72,232.066z"/>
								<path style="fill:#FFBDA8;" d="M236.72,232.066l5.723-16.623h-7.898l-4.03,16.623l-8.35,8.914h3.958
									c1.852,0,3.633-0.687,5.003-1.933C232.976,237.363,235.466,234.773,236.72,232.066z"/>
							</g>
							<polygon style="fill:#0055BC;" points="251.981,106.86 229.343,222.128 246.09,224.502 270.873,125.787 271.725,105.899 
															"/>
						</g>
						<g>
							<g>
								<g>
									<g>
										<path style="fill:#1F0A00;" d="M278.866,239.929l-10.107-6.426c0,0-1.197-0.058-1.477,4.606v6.024h1.445v-4.204
											l1.619,4.204h13.275C283.622,244.134,284.341,241.296,278.866,239.929z"/>
									</g>
									<polygon style="fill:#FFBDA8;" points="268.076,217.796 268.759,233.504 274.575,233.504 275.505,216.704 									"/>
								</g>
								<path style="fill:#FFBDA8;" d="M273.817,230.336l5.05,9.593h-5.27c-2.73,0-4.926-2.244-4.868-4.973l0.031-1.453
									L273.817,230.336z"/>
							</g>
							<g>
								<polygon style="fill:#0055BC;" points="259.848,106.86 261.659,224.609 280.462,224.609 279.51,151.464 271.725,105.899 
																	"/>
								
									<polyline style="fill:none;stroke:#000000;stroke-width:0.3228;stroke-linecap:round;stroke-linejoin:round;stroke-miterlimit:10;" points="
									260.774,167.094 259.906,133.455 254.862,127.789 								"/>
							</g>
						</g>
					</g>
				</g>
				<g>
					<path style="fill:#214380;" d="M275.82,38.065c0,0,7.335-1.368,6.52,6.369c-0.815,7.737-2.445,11.491,6.52,12.33
						c0,0-0.543,2.333-3.26,3.556c0,0,0.951,1.273,5.297,0.908c0,0-2.445,6.019-11.816,4.118
						c-9.372-1.902-3.939-23.618-3.939-23.618L275.82,38.065z"/>
					<path style="fill:#FFD051;" d="M270.294,39.652c0,2.104,1.706,3.81,3.81,3.81c2.104,0,3.81-1.706,3.81-3.81
						c0-2.104-1.706-3.81-3.81-3.81C271.999,35.842,270.294,37.548,270.294,39.652z"/>
					<path style="fill:#2D4D91;" d="M264.401,51.196L264.401,51.196l-1.707-21.946l1.81,0.016
						c6.016,0.053,10.865,4.946,10.865,10.962v0C275.369,46.286,270.459,51.196,264.401,51.196z"/>
					<ellipse style="fill:#2D4D91;" cx="262.694" cy="41.348" rx="12.675" ry="12.097"/>
					<path style="fill:#FF9D8D;" d="M254.457,46.839c-0.525,1.734-2.357,2.713-4.09,2.188c-1.734-0.525-2.713-2.357-2.188-4.09
						s2.357-2.713,4.09-2.188C254.003,43.274,254.983,45.105,254.457,46.839z"/>
					<polygon style="fill:#FFBDA8;" points="258.285,53.504 258.602,68.047 268.322,68.047 265.659,46.642 					"/>
					<polygon style="fill:#1F0A00;" points="258.426,59.913 264.991,53.103 258.328,54.758 					"/>
					<path style="fill:#FFBDA8;" d="M252.137,34.183c-0.827,0.699-1.354,1.681-1.566,2.739c-0.628,3.138-1.86,8.667-0.749,11.998
						c1.444,4.332,4.962,7.403,10.646,6.322c0,0,6.812-0.687,8.213-9.315C270.913,32.18,259.222,28.195,252.137,34.183z"/>
					<g>
						<path style="fill:#1F0A00;" d="M251.769,43.584c-0.105,0.401-0.516,0.64-0.917,0.535c-0.401-0.105-0.64-0.516-0.535-0.917
							c0.105-0.401,0.516-0.64,0.917-0.535C251.635,42.773,251.875,43.183,251.769,43.584z"/>
						<path style="fill:#1F0A00;" d="M258.112,43.711c-0.105,0.401-0.516,0.64-0.917,0.535c-0.401-0.105-0.64-0.516-0.535-0.917
							c0.105-0.401,0.516-0.64,0.917-0.535C257.978,42.9,258.217,43.31,258.112,43.711z"/>
						
							<path style="fill:none;stroke:#000000;stroke-width:0.3228;stroke-linecap:round;stroke-linejoin:round;stroke-miterlimit:10;" d="
							M253.223,45.386l-0.524,1.426c-0.039,0.179,0.069,0.357,0.246,0.404l0.81,0.15"/>
						<path style="fill:#1F0A00;" d="M252.472,38.557c0,0,0.28,0.842-0.769,1.014c-0.796,0.131-1.302,0.201-1.747,0.394
							c-0.253,0.11-0.548,0.021-0.699-0.209l0,0c-0.122-0.186-0.126-0.425-0.004-0.611c0.247-0.376,0.774-0.96,1.741-1.133
							C252.235,37.791,252.472,38.557,252.472,38.557z"/>
						<path style="fill:#1F0A00;" d="M257.419,36.87c0,0-0.321,0.848,1.031,0.996c1.027,0.112,2.254,0.499,2.834,0.682
							c0.329,0.104,0.703,0.008,0.886-0.225l0,0c0.148-0.188,0.142-0.428-0.022-0.611c-0.333-0.371-1.611-1.271-2.858-1.421
							C257.688,36.098,257.419,36.87,257.419,36.87z"/>
						<g>
							<path style="opacity:0.11;fill:#FFFFFF;" d="M254.655,43.385c0.026,2.248,1.83,4.05,4.03,4.024
								c2.2-0.025,3.962-1.868,3.936-4.116c-0.026-2.248-1.83-4.05-4.03-4.024C256.392,39.294,254.629,41.137,254.655,43.385z"/>
							<path style="opacity:0.11;fill:#FFFFFF;" d="M246.594,43.448c0.025,2.159,1.384,3.893,3.037,3.874
								c1.652-0.019,2.971-1.785,2.947-3.943c-0.025-2.159-1.384-3.893-3.037-3.874C247.888,39.523,246.569,41.289,246.594,43.448z"
								/>
							
								<path style="fill:none;stroke:#FFFFFF;stroke-width:0.4556;stroke-linecap:round;stroke-linejoin:round;stroke-miterlimit:10;" d="
								M254.655,43.385c0.026,2.248,1.83,4.05,4.03,4.024c2.2-0.025,3.962-1.868,3.936-4.116c-0.026-2.248-1.83-4.05-4.03-4.024
								C256.392,39.294,254.629,41.137,254.655,43.385z"/>
							
								<path style="fill:none;stroke:#FFFFFF;stroke-width:0.4265;stroke-linecap:round;stroke-linejoin:round;stroke-miterlimit:10;" d="
								M246.594,43.448c0.025,2.159,1.384,3.893,3.037,3.874c1.652-0.019,2.971-1.785,2.947-3.943
								c-0.025-2.159-1.384-3.893-3.037-3.874C247.888,39.523,246.569,41.289,246.594,43.448z"/>
							
								<path style="fill:none;stroke:#FFFFFF;stroke-width:0.4556;stroke-linecap:round;stroke-linejoin:round;stroke-miterlimit:10;" d="
								M254.655,43.385c0,0-0.892-1.007-2.078-0.006"/>
							
								<line style="fill:none;stroke:#FFFFFF;stroke-width:0.4556;stroke-linecap:round;stroke-linejoin:round;stroke-miterlimit:10;" x1="262.621" y1="43.293" x2="266.181" y2="44.647"/>
						</g>
						
							<path style="fill:none;stroke:#000000;stroke-width:0.3228;stroke-linecap:round;stroke-linejoin:round;stroke-miterlimit:10;" d="
							M252.506,48.784c0,0,1.689,1.492,4.39,0"/>
					</g>
					<path style="fill:#2D4D91;" d="M257.79,33.474c-2.157,0.008-4.745,0.247-6.321,1.414c0,0,1.46-5.318,10.649-5.626l3.456,7.68
						l-1.917-1.724C261.928,33.878,259.978,33.466,257.79,33.474z"/>
					<path style="fill:#2D4D91;" d="M264.784,36.331c0,0,2.125,2.194,1.397,10.045l6.467-4.716c0,0-0.319-12.518-11.827-10.67
						L264.784,36.331z"/>
					<g>
						<path style="fill:#FFBDA8;" d="M272.904,47.941c-0.57,1.882-2.559,2.946-4.441,2.375c-1.882-0.57-2.946-2.559-2.375-4.441
							c0.57-1.882,2.559-2.946,4.441-2.375C272.411,44.071,273.474,46.059,272.904,47.941z"/>
						
							<path style="fill:none;stroke:#000000;stroke-width:0.3228;stroke-linecap:round;stroke-linejoin:round;stroke-miterlimit:10;" d="
							M271.102,45.868c0,0-2.611-0.75-3.305,2.123"/>
					</g>
					<path style="fill:#2D4D91;" d="M264.784,36.331c0,0-2.328-3.105-7.783-1.541c0,0-4.725,1.491-5.532,0.099v-0.074
						c0-2.825,2.221-5.151,5.044-5.28l5.605-0.271L264.784,36.331z"/>
				</g>
				<g>
					<g>
						<path style="fill:#A9C3FA;" d="M250.99,68.047c0,0,4.638-2.462,11.704-2.705c7.066-0.244,16.816,2.705,16.816,2.705
							l-6.864,39.66l-20.665-0.848L250.99,68.047z"/>
						<path style="fill:#FFBDA8;" d="M255.838,66.318c0,0,4.337-1.13,7.466-0.991l5.018,0.337c0,0,3.345,0.424,4.907,0.829
							c0,0-2.687,5.884-12.809,5.388C253.824,71.558,255.838,66.318,255.838,66.318z"/>
					</g>
					<g>
						<g>
							<g>
								<g>
									<g>
										<g>
											<path style="fill:#FFBDA8;" d="M216.282,65.486l-4.519,1.717l6.848,21.9c1.352,3.318,5.439,4.515,8.368,2.452l0,0
												c2.435-1.716,3.09-5.043,1.487-7.553L216.282,65.486z"/>
										</g>
									</g>
								</g>
							</g>
							<path style="fill:#FFBDA8;" d="M215.801,66.739c0,0,2.279-1.015,2.734-4.566c0.272-2.125,0.304-3.922,0.286-5.022
								c-0.01-0.626-0.557-1.105-1.179-1.034l0,0c-0.361,0.041-0.675,0.265-0.832,0.592l-1.413,2.929l-2.363-9.996
								c-0.13-0.57-0.71-0.915-1.273-0.76l0,0c-0.503,0.139-0.821,0.632-0.74,1.147l1.189,7.402c0,0-5.806,0.081-4.547,5.487
								c0.977,4.193,4.401,5.252,4.401,5.252L215.801,66.739z"/>
							<g>
								<path style="fill:#FCFCFC;" d="M251.794,86.656c0,0-9.841,6.662-19.859,11.199s-19.66-17.129-20.787-22.839l10.365-4.112
									l9.4,11.453c0,0,11.118-12.408,23.949-15.863L251.794,86.656z"/>
								
									<line style="fill:none;stroke:#E6EFFF;stroke-width:0.5841;stroke-linecap:round;stroke-linejoin:round;stroke-miterlimit:10;" x1="230.013" y1="80.686" x2="233.005" y2="84.944"/>
							</g>
						</g>
						<g>
							<path style="fill:#FCFCFC;" d="M255.838,66.318c0,0-4.343,22.994-8.621,127.784l-15.008-3.174l17.265-87.075l-3.834-31.385
								C245.64,72.467,248.982,67.294,255.838,66.318z"/>
							
								<polyline style="fill:none;stroke:#E6EFFF;stroke-width:0.5841;stroke-linecap:round;stroke-linejoin:round;stroke-miterlimit:10;" points="
								255.838,65.914 250.293,71.911 252.691,74.208 249.045,77.412 252.52,96.217 							"/>
							
								<line style="fill:none;stroke:#E6EFFF;stroke-width:0.5841;stroke-linecap:round;stroke-linejoin:round;stroke-miterlimit:10;" x1="247.652" y1="91.656" x2="246.249" y2="81.399"/>
						</g>
					</g>
					<g>
						<g>
							<path style="fill:#FCFCFC;" d="M265.574,195.876c-4.753-111.38,7.655-129.382,7.655-129.382s8.955,1.27,12.446,4.41
								c0,0-1.383,17.644-12.618,32.402c0,0,9.713,7.82,9.178,27.058c-0.535,19.238,2.074,63.599,2.074,63.599L265.574,195.876z"/>
							
								<polyline style="fill:none;stroke:#E6EFFF;stroke-width:0.5841;stroke-linecap:round;stroke-linejoin:round;stroke-miterlimit:10;" points="
								272.991,66.053 276.734,72.972 273.058,74.888 276.501,78.036 267.158,96.746 							"/>
						</g>
						<g>
							<g>
								<g>
									<g>
										<g>
											<path style="fill:#FFBDA8;" d="M278,107.468l1.979,4.41l20.603-8.073c3.233-1.545,4.188-5.695,1.956-8.498l0,0
												c-1.856-2.33-5.216-2.788-7.628-1.04L278,107.468z"/>
										</g>
									</g>
								</g>
								<g>
									<path style="fill:#FFBDA8;" d="M265.771,109.304l5.954-3.405l-1.146-1.66c-0.277-0.449-0.219-1.027,0.14-1.413
										c0.371-0.398,0.969-0.487,1.44-0.215l7.157,4.448l3.468,3.214c-2.859,3.192-4.972,3.439-6.258,3.065
										c-0.135,0.066-0.269,0.137-0.407,0.197l-4.775,2.084c-0.433,0.259-0.992,0.137-1.277-0.279
										c-0.207-0.302-0.333-0.814,0.558-1.426l-0.891,0.612c-0.458,0.274-1.05,0.137-1.34-0.311
										c-0.27-0.394-0.082-0.987,0.43-1.427l-0.693,0.385c-0.499,0.299-1.157,0.122-1.431-0.414
										c-0.236-0.463-0.05-1.034,0.379-1.328l0.984-0.675l-1.213,0.47c-0.55,0.281-1.235,0.058-1.504-0.522
										C265.115,110.21,265.32,109.615,265.771,109.304z"/>
									
										<line style="fill:none;stroke:#37152A;stroke-width:0.2888;stroke-linecap:round;stroke-linejoin:round;stroke-miterlimit:10;" x1="268.064" y1="110.758" x2="270.618" y2="109.105"/>
									
										<line style="fill:none;stroke:#37152A;stroke-width:0.2888;stroke-linecap:round;stroke-linejoin:round;stroke-miterlimit:10;" x1="268.815" y1="112.705" x2="271.369" y2="111.052"/>
									
										<line style="fill:none;stroke:#37152A;stroke-width:0.2888;stroke-linecap:round;stroke-linejoin:round;stroke-miterlimit:10;" x1="270.092" y1="114.122" x2="272.647" y2="112.469"/>
								</g>
							</g>
							<g>
								<path style="fill:#FCFCFC;" d="M285.676,70.904c0,0,13.675,14.035,19.995,23.034c6.32,8.999-13.329,17.53-18.73,19.7
									l-4.705-10.93l9.301-6.685l-14.134-12.62L285.676,70.904z"/>
								
									<line style="fill:none;stroke:#E6EFFF;stroke-width:0.5841;stroke-linecap:round;stroke-linejoin:round;stroke-miterlimit:10;" x1="277.403" y1="83.403" x2="282.584" y2="88.6"/>
								
									<line style="fill:none;stroke:#E6EFFF;stroke-width:0.5841;stroke-linecap:round;stroke-linejoin:round;stroke-miterlimit:10;" x1="290.876" y1="96.102" x2="296.494" y2="92.573"/>
							</g>
						</g>
					</g>
				</g>
			</g>
			<g>
				<g>
					
						<line style="fill:none;stroke:#A9C3FA;stroke-width:2.7531;stroke-miterlimit:10;" x1="99.402" y1="48.892" x2="187.647" y2="48.892"/>
					
						<line style="fill:none;stroke:#A9C3FA;stroke-width:2.7531;stroke-miterlimit:10;" x1="110.683" y1="65.263" x2="175.121" y2="65.263"/>
					
						<line style="fill:none;stroke:#A9C3FA;stroke-width:2.7531;stroke-miterlimit:10;" x1="127.103" y1="81.634" x2="161.662" y2="81.634"/>
					
						<line style="fill:none;stroke:#A9C3FA;stroke-width:2.7531;stroke-miterlimit:10;" x1="118.187" y1="114.375" x2="166.502" y2="114.375"/>
					
						<line style="fill:none;stroke:#A9C3FA;stroke-width:2.7531;stroke-miterlimit:10;" x1="116.351" y1="130.746" x2="173.654" y2="130.746"/>
					
						<line style="fill:none;stroke:#A9C3FA;stroke-width:2.7531;stroke-miterlimit:10;" x1="116.351" y1="147.117" x2="174.223" y2="147.117"/>
					
						<line style="fill:none;stroke:#A9C3FA;stroke-width:2.7531;stroke-miterlimit:10;" x1="121.524" y1="163.487" x2="165.931" y2="163.487"/>
					
						<line style="fill:none;stroke:#A9C3FA;stroke-width:2.7531;stroke-miterlimit:10;" x1="123.181" y1="196.229" x2="162.376" y2="196.229"/>
					
						<line style="fill:none;stroke:#A9C3FA;stroke-width:2.7531;stroke-miterlimit:10;" x1="110.685" y1="212.599" x2="177.711" y2="212.599"/>
					
						<line style="fill:none;stroke:#A9C3FA;stroke-width:2.7531;stroke-miterlimit:10;" x1="99.402" y1="228.97" x2="187.647" y2="228.97"/>
				</g>
				<g>
					<path style="fill:none;stroke:#0055BC;stroke-width:7.3416;stroke-linejoin:round;stroke-miterlimit:10;" d="M97.554,35.842
						c0,0-0.692,28.575,46.301,57.639c40.834,25.255,40.142,65.169,0.011,90.25c0,0-41.879,18.694-43.145,60.498"/>
					<path style="fill:none;stroke:#0055BC;stroke-width:7.3416;stroke-linejoin:round;stroke-miterlimit:10;" d="M189.902,35.842
						c0,0,0.692,28.575-46.301,57.639c-40.834,25.255-40.142,65.169-0.011,90.25c0,0,41.879,18.694,43.145,60.498"/>
				</g>
			</g>
		</g>
	</g>
	<g>
		<g>
			<g>
				<g>
					<g>
						
							<ellipse transform="matrix(0.9996 -0.0278 0.0278 0.9996 -8.61 13.7464)" style="fill:#1F0A00;" cx="490.605" cy="316.859" rx="8.777" ry="8.777"/>
						<path style="fill:#494243;" d="M492.341,313.208c-0.151,0.98,0.521,1.896,1.5,2.047c0.98,0.151,1.896-0.521,2.047-1.5
							c0.151-0.979-0.521-1.896-1.5-2.047C493.409,311.557,492.492,312.229,492.341,313.208z"/>
					</g>
					<g>
						<path style="fill:#1F0A00;" d="M432.01,407.791c2.18,4.33,7.457,6.072,11.786,3.892c4.329-2.18,6.072-7.457,3.892-11.786
							c-2.18-4.329-7.457-6.072-11.786-3.892C431.573,398.184,429.83,403.461,432.01,407.791z"/>
						<path style="fill:#494243;" d="M436.619,400.077c0.446,0.885,1.525,1.242,2.41,0.796c0.885-0.446,1.242-1.525,0.796-2.41
							c-0.446-0.885-1.525-1.241-2.41-0.796C436.53,398.112,436.173,399.191,436.619,400.077z"/>
					</g>
					
						<line style="fill:none;stroke:#FFFFFF;stroke-width:3.1561;stroke-linecap:round;stroke-linejoin:round;stroke-miterlimit:10;" x1="479.68" y1="273.811" x2="489.132" y2="313.219"/>
					
						<line style="fill:none;stroke:#FFFFFF;stroke-width:3.1561;stroke-linecap:round;stroke-linejoin:round;stroke-miterlimit:10;" x1="472.393" y1="369.418" x2="444.781" y2="400.44"/>
					<g>
						<path style="fill:#0055BC;" d="M466.984,272c-1,6.484,3.446,12.551,9.93,13.551c6.484,1,12.551-3.446,13.551-9.93
							c1-6.484-3.446-12.551-9.93-13.551C474.051,261.07,467.984,265.516,466.984,272z"/>
						<path style="fill:#0076D9;" d="M472.421,268.582c-0.204,1.326,0.705,2.566,2.03,2.771c1.326,0.204,2.566-0.705,2.771-2.03
							c0.205-1.326-0.704-2.566-2.03-2.771C473.866,266.347,472.626,267.256,472.421,268.582z"/>
					</g>
					<g>
						<path style="fill:#0055BC;" d="M465.511,360.585c-1,6.484,3.446,12.551,9.93,13.551c6.484,1,12.551-3.446,13.551-9.93
							c1-6.484-3.446-12.551-9.93-13.551C472.578,349.656,466.511,354.101,465.511,360.585z"/>
						<path style="fill:#0076D9;" d="M477.28,355.968c-0.204,1.326,0.704,2.566,2.03,2.771c1.326,0.204,2.566-0.705,2.771-2.03
							c0.204-1.326-0.705-2.566-2.03-2.771C478.725,353.733,477.484,354.642,477.28,355.968z"/>
					</g>
					
						<line style="fill:none;stroke:#FFFFFF;stroke-width:3.1561;stroke-linecap:round;stroke-linejoin:round;stroke-miterlimit:10;" x1="422.718" y1="331.676" x2="472.393" y2="355.517"/>
					
						<line style="fill:none;stroke:#FFFFFF;stroke-width:3.1561;stroke-linecap:round;stroke-linejoin:round;stroke-miterlimit:10;" x1="477.672" y1="275.915" x2="422.718" y2="331.676"/>
					<g>
						<path style="fill:#1F0A00;" d="M406.121,329.117c-1.414,9.167,4.871,17.744,14.038,19.157
							c9.167,1.414,17.744-4.872,19.157-14.038c1.414-9.167-4.871-17.744-14.038-19.157
							C416.111,313.665,407.534,319.95,406.121,329.117z"/>
						<path style="fill:#494243;" d="M413.808,324.284c-0.289,1.874,0.996,3.628,2.87,3.917c1.874,0.289,3.628-0.996,3.917-2.87
							c0.289-1.874-0.996-3.628-2.87-3.917S414.097,322.41,413.808,324.284z"/>
					</g>
				</g>
				<g>
					<g>
						<path style="fill:#1F0A00;" d="M617.341,376.632c1.218,4.692,6.009,7.508,10.701,6.29c4.692-1.218,7.508-6.009,6.29-10.701
							c-1.218-4.692-6.009-7.508-10.701-6.29C618.939,367.149,616.123,371.94,617.341,376.632z"/>
						<path style="fill:#494243;" d="M623.473,370.063c0.249,0.959,1.229,1.535,2.188,1.286c0.959-0.249,1.535-1.229,1.286-2.188
							c-0.249-0.959-1.229-1.535-2.188-1.286C623.8,368.124,623.224,369.104,623.473,370.063z"/>
					</g>
					
						<line style="fill:none;stroke:#FFFFFF;stroke-width:3.1561;stroke-linecap:round;stroke-linejoin:round;stroke-miterlimit:10;" x1="664.906" y1="347.635" x2="631.375" y2="372.139"/>
					<g>
						<path style="fill:#0055BC;" d="M660.041,337.55c-2.345,6.128,0.722,12.995,6.85,15.34c6.128,2.344,12.995-0.722,15.34-6.85
							c2.344-6.127-0.722-12.995-6.85-15.34C669.253,328.356,662.386,331.423,660.041,337.55z"/>
						<path style="fill:#0076D9;" d="M672.519,335.517c-0.479,1.253,0.148,2.657,1.401,3.137c1.253,0.479,2.657-0.148,3.136-1.401
							c0.479-1.253-0.148-2.657-1.401-3.136C674.403,333.638,672.999,334.265,672.519,335.517z"/>
					</g>
					
						<line style="fill:none;stroke:#FFFFFF;stroke-width:3.1561;stroke-linecap:round;stroke-linejoin:round;stroke-miterlimit:10;" x1="624.305" y1="300.269" x2="667.837" y2="334.047"/>
					<g>
						
							<ellipse transform="matrix(0.6374 -0.7706 0.7706 0.6374 -4.9764 589.9645)" style="fill:#0055BC;" cx="624.305" cy="300.269" rx="16.794" ry="16.794"/>
						<path style="fill:#0076D9;" d="M617.154,291.165c-0.678,1.771,0.209,3.757,1.98,4.434s3.756-0.209,4.434-1.98
							c0.678-1.771-0.209-3.757-1.98-4.434S617.831,289.394,617.154,291.165z"/>
					</g>
				</g>
			</g>
			<g>
				<g>
					<g>
						<g>
							<polygon style="fill:#C36768;" points="550.125,466.121 547.844,437.591 537.976,439.943 541.519,464.323 							"/>
							<g>
								<g>
									<g>
										<g>
											<defs>
												<path id="XMLID_12_" d="M549.888,461.504c0,0-6.53,3.545-9.34-1.599l-18.292,10.934l30.545-0.196L549.888,461.504z"/>
											</defs>
											<use xlink:href="#XMLID_12_"  style="overflow:visible;fill:#101010;"/>
											<clipPath id="XMLID_00000035508345102578895040000004026340258016768919_">
												<use xlink:href="#XMLID_12_"  style="overflow:visible;"/>
											</clipPath>
										</g>
										
											<rect x="522.266" y="470.741" transform="matrix(1 -0.0064 0.0064 1 -3.0215 3.4624)" style="fill:#FFFFFF;" width="30.546" height="2.806"/>
										<path style="fill:#FFFFFF;" d="M538.877,465.255c-0.086-0.035-0.163-0.092-0.223-0.169
											c-1.247-1.634-2.499-2.44-2.511-2.448c-0.247-0.157-0.313-0.475-0.148-0.71c0.164-0.236,0.502-0.293,0.745-0.143
											c0.058,0.036,1.417,0.906,2.787,2.699c0.174,0.229,0.121,0.549-0.119,0.716
											C539.247,465.309,539.045,465.324,538.877,465.255z"/>
										<path style="fill:#FFFFFF;" d="M536.255,466.566c-0.086-0.035-0.163-0.092-0.223-0.169
											c-1.247-1.634-2.499-2.44-2.511-2.448c-0.247-0.157-0.313-0.475-0.148-0.71c0.164-0.235,0.504-0.296,0.745-0.143
											c0.058,0.036,1.417,0.906,2.787,2.699c0.174,0.229,0.121,0.549-0.119,0.716
											C536.626,466.62,536.424,466.635,536.255,466.566z"/>
										<path style="fill:#FFFFFF;" d="M533.634,467.877c-0.086-0.035-0.163-0.092-0.223-0.169
											c-1.247-1.633-2.499-2.44-2.511-2.448c-0.247-0.157-0.314-0.475-0.148-0.71c0.164-0.235,0.503-0.296,0.745-0.143
											c0.058,0.036,1.417,0.906,2.787,2.699c0.175,0.229,0.121,0.549-0.119,0.716
											C534.004,467.931,533.802,467.946,533.634,467.877z"/>
									</g>
								</g>
							</g>
						</g>
						<g>
							<path style="fill:#0055BC;" d="M539.351,351.885l-6.437,48.217c-0.746,5.789-0.798,11.646-0.154,17.447l4.527,38.6h15.663
								l-2.583-46.337l9.18-57.925H539.351z"/>
						</g>
					</g>
					<g>
						<g>
							<polygon style="fill:#C36768;" points="575.986,465.886 573.705,438.098 563.917,439.943 567.46,464.323 							"/>
							<g>
								<g>
									<g>
										<g>
											<defs>
												<path id="XMLID_15_" d="M575.815,461.504c0,0-6.53,3.545-9.34-1.599l-18.292,10.934l30.546-0.196L575.815,461.504z"/>
											</defs>
											<use xlink:href="#XMLID_15_"  style="overflow:visible;fill:#101010;"/>
											<clipPath id="XMLID_00000032619190742870446690000009650402986064344449_">
												<use xlink:href="#XMLID_15_"  style="overflow:visible;"/>
											</clipPath>
										</g>
										
											<rect x="548.193" y="470.741" transform="matrix(1 -0.0064 0.0064 1 -3.021 3.6289)" style="fill:#FFFFFF;" width="30.546" height="2.806"/>
										<path style="fill:#FFFFFF;" d="M564.803,465.255c-0.086-0.035-0.163-0.092-0.223-0.169
											c-1.247-1.634-2.499-2.44-2.511-2.448c-0.247-0.157-0.314-0.475-0.148-0.71c0.164-0.236,0.503-0.293,0.745-0.143
											c0.058,0.036,1.417,0.906,2.786,2.699c0.175,0.229,0.121,0.549-0.119,0.716
											C565.174,465.309,564.972,465.324,564.803,465.255z"/>
										<path style="fill:#FFFFFF;" d="M562.182,466.566c-0.086-0.035-0.163-0.092-0.223-0.169
											c-1.247-1.634-2.499-2.44-2.511-2.448c-0.247-0.157-0.314-0.475-0.148-0.71c0.164-0.235,0.504-0.296,0.745-0.143
											c0.058,0.036,1.417,0.906,2.786,2.699c0.175,0.229,0.121,0.549-0.119,0.716
											C562.552,466.62,562.35,466.635,562.182,466.566z"/>
										<path style="fill:#FFFFFF;" d="M559.56,467.877c-0.086-0.035-0.163-0.092-0.223-0.169
											c-1.247-1.633-2.499-2.44-2.511-2.448c-0.247-0.157-0.314-0.475-0.148-0.71c0.164-0.235,0.503-0.296,0.745-0.143
											c0.058,0.036,1.417,0.906,2.787,2.699c0.175,0.229,0.121,0.549-0.119,0.716
											C559.931,467.931,559.729,467.946,559.56,467.877z"/>
									</g>
								</g>
							</g>
						</g>
						<g>
							<polygon style="fill:#0055BC;" points="571.707,360 578.093,456.147 562.405,456.147 550.984,357.904 							"/>
							
								<polyline style="fill:none;stroke:#000000;stroke-width:0.3228;stroke-linecap:round;stroke-linejoin:round;stroke-miterlimit:10;" points="
								547.174,366.691 552.464,370.167 554.132,386.051 							"/>
						</g>
					</g>
				</g>
				<g>
					<g>
						<path style="fill:#A9C3FA;" d="M557.541,293.589c0,0-6.173,0.698-11.13,3.191c-4.944,2.487-5.571,9.148-7.061,17.446
							c-1.489,8.298,0,38.388,0,38.388l29.04,1.811l5.957-41.689l-2.339-15.318L557.541,293.589z"/>
						<g>
							<path style="fill:#C36768;" d="M552.443,293.978c0,0-4.518,5.934,0.762,7.164c4.577,1.066,8.745-1.707,8.739-6.372
								L552.443,293.978z"/>
						</g>
					</g>
					<g>
						<g>
							<path style="fill:#FCFCFC;" d="M551.907,294.711c0,0-11.859-0.39-15.649,14.349c-0.947,3.685-1.503,18.503-1.965,21.952
								l0.284,8.575l9.251-12.172l-0.116-17.472L551.907,294.711z"/>
						</g>
						<g>
							<path style="fill:#FCFCFC;" d="M551.907,294.711c0,0-10.674,25.279-8.469,78.263c0.185,4.448-2.734,10.142-7.043,11.261
								l-2.632,0.684l3.893-38.644C537.657,346.276,533.097,295.892,551.907,294.711z"/>
							
								<path style="fill:none;stroke:#E6EFFF;stroke-width:0.5841;stroke-linecap:round;stroke-linejoin:round;stroke-miterlimit:10;" d="
								M537.266,335.587c0,0,0.405-18.79,3.742-29.115"/>
							
								<polyline style="fill:none;stroke:#E6EFFF;stroke-width:0.5841;stroke-linecap:round;stroke-linejoin:round;stroke-miterlimit:10;" points="
								551.681,294.79 543.864,303.318 545.96,306.811 542.345,309.438 543.151,341.976 							"/>
						</g>
						<g>
							<polygon style="fill:#D2E1FF;" points="513.422,311.922 522.386,349.408 549.281,347.355 540.266,309.629 							"/>
							<path style="fill:#C36768;" d="M517.184,327.655c0,0-1.689,0.116-0.92,4.27c0.769,4.153,2.325,5.373,3.393,6.071
								c0.473,0.309,2.125,0.029,3.818-0.38c2.484-0.599,4.109-2.988,3.796-5.524l0,0c-0.312-2.533-2.464-4.436-5.017-4.436H517.184
								z"/>
						</g>
					</g>
					<g>
						<g>
							<path style="fill:#FCFCFC;" d="M562.074,294.58c0,0-6.526,58.099-3.465,80.989c0.63,4.71,3.954,8.584,8.51,9.935
								c3.022,0.896,7.073,1.85,12.102,2.497c0,0-7.102-28.781-6.862-48.656c0,0,5.764-20.252,7.098-24.94l-7.449-16.986
								L562.074,294.58z"/>
							
								<polyline style="fill:none;stroke:#E6EFFF;stroke-width:0.5841;stroke-linecap:round;stroke-linejoin:round;stroke-miterlimit:10;" points="
								562.258,294.948 568.417,307.299 564.713,309.76 568.417,313.365 558.515,346.209 							"/>
						</g>
						<g>
							<g>
								<g>
									<path style="fill:#FCFCFC;" d="M572.009,297.419c0,0,11.28,6.173,24.143,34.455l-10.544,5.389l-13.599-20.652V297.419z"/>
									
										<line style="fill:none;stroke:#E6EFFF;stroke-width:0.5841;stroke-linecap:round;stroke-linejoin:round;stroke-miterlimit:10;" x1="576.79" y1="324.413" x2="572.009" y2="316.611"/>
								</g>
							</g>
							<g>
								<g>
									<path style="fill:#AE4E53;" d="M582.025,371.042l0.406,9.036c0.023,0.501,0.432,0.899,0.934,0.906l0,0
										c0.508,0.007,0.932-0.388,0.96-0.896l0.241-4.336L582.025,371.042z"/>
									<path style="fill:#C36768;" d="M582.287,355.795l-2.052,4.352c0,0-2.939,3.716-2.298,8.238
										c0.401,2.826,0.214,4.68,0.017,5.673c-0.102,0.517,0.175,1.032,0.67,1.213l0.005,0.002c0.522,0.19,1.105-0.053,1.325-0.564
										c0.426-0.988,1.041-2.712,1.204-4.727l3.65,10.464c0.149,0.465,0.67,0.698,1.116,0.497l0,0
										c0.314-0.141,0.507-0.464,0.481-0.808l-1.048-12.914c0,0,0.214-7.392,0.862-9.428L582.287,355.795z"/>
								</g>
								<path style="fill:#FCFCFC;" d="M581.931,332.972l-3.742,25.538l11.784,2.254l6.432-25.574
									c0.501-3.992-2.312-7.641-6.3-8.172l0,0C586.227,326.502,582.628,329.123,581.931,332.972z"/>
							</g>
						</g>
					</g>
				</g>
				<g>
					<path style="fill:#AE4E53;" d="M546.261,277.238c-0.396,1.756-2.141,2.857-3.897,2.461c-1.756-0.397-2.857-2.141-2.461-3.897
						c0.396-1.756,2.141-2.858,3.897-2.461C545.556,273.738,546.658,275.483,546.261,277.238z"/>
					<polygon style="fill:#C36768;" points="551.635,284.409 551.928,295.52 561.945,294.77 559.186,275.563 					"/>
					<polygon style="fill:#1F0A00;" points="551.807,291.914 558.674,282.773 551.681,285.101 					"/>
					<path style="fill:#C36768;" d="M547.121,262.519c-3.292,0.44-4.896,3.929-5.222,7.059c-0.375,3.605-0.709,9.191,0.411,11.928
						c1.732,4.231,5.41,6.711,10.973,5.203c0,0,6.513-0.794,7.454-10.613C561.851,264.478,554.126,261.582,547.121,262.519z"/>
					<g>
						<path style="fill:#1F0A00;" d="M543.815,274.207c-0.076,0.405-0.465,0.672-0.87,0.596c-0.405-0.076-0.672-0.465-0.596-0.87
							c0.076-0.405,0.465-0.672,0.87-0.596C543.624,273.412,543.891,273.802,543.815,274.207z"/>
						<path style="fill:#1F0A00;" d="M550.11,274.207c-0.076,0.405-0.465,0.672-0.87,0.596c-0.405-0.076-0.672-0.465-0.596-0.87
							c0.076-0.405,0.465-0.672,0.87-0.596C549.919,273.412,550.186,273.802,550.11,274.207z"/>
						
							<path style="fill:none;stroke:#1F0A00;stroke-width:0.387;stroke-linecap:round;stroke-linejoin:round;stroke-miterlimit:10;" d="
							M545.198,275.034l-0.528,2.148c-0.056,0.229,0.091,0.46,0.323,0.504l0.788,0.152"/>
						<path style="fill:#1F0A00;" d="M544.469,267.889c0,0,0.294,0.885-0.808,1.066c-0.836,0.138-1.368,0.212-1.836,0.414
							c-0.266,0.115-0.576,0.022-0.734-0.22l0,0c-0.128-0.195-0.132-0.447-0.004-0.642c0.259-0.395,0.813-1.009,1.829-1.19
							C544.221,267.084,544.469,267.889,544.469,267.889z"/>
						<path style="fill:#1F0A00;" d="M548.328,267.927c0,0-0.337,0.891,1.083,1.047c1.079,0.118,2.368,0.525,2.978,0.717
							c0.346,0.109,0.739,0.008,0.931-0.237l0,0c0.155-0.198,0.15-0.45-0.023-0.642c-0.35-0.389-1.693-1.335-3.004-1.493
							C548.61,267.116,548.328,267.927,548.328,267.927z"/>
					</g>
					<path style="fill:#1F0A00;" d="M558.033,277.839l-1.437-7.172c-0.323-1.663,1.532-4.984,1.532-4.984
						c-6.301,0.017-14.674-0.156-14.674-0.729c0,0,2.616-6.934,13.44-6.076c14.822,1.175,12.263,20.313,3.113,23.895
						L558.033,277.839z"/>
					<g>
						<path style="fill:#FFFFFF;" d="M544.657,276.31l-3.286,1.762c0,0,0.162,9.225,8.731,9.215
							c5.197-0.006,7.549-3.152,7.549-3.152l-1.795-5.866L544.657,276.31z"/>
						<polyline style="fill:none;stroke:#FFFFFF;stroke-width:0.6899;stroke-miterlimit:10;" points="559.834,279.1 
							554.575,280.566 557.334,274.14 						"/>
					</g>
					<g>
						<path style="fill:#C36768;" d="M564.483,277.128c-0.454,2.01-2.451,3.271-4.461,2.817c-2.01-0.454-3.271-2.451-2.817-4.461
							c0.454-2.01,2.451-3.271,4.46-2.817C563.676,273.122,564.937,275.119,564.483,277.128z"/>
						
							<path style="fill:none;stroke:#1F0A00;stroke-width:0.3651;stroke-linecap:round;stroke-linejoin:round;stroke-miterlimit:10;" d="
							M562.444,275.098c0,0-2.784-0.586-3.293,2.468"/>
					</g>
				</g>
			</g>
		</g>
		
			<line style="fill:none;stroke:#A9C3FA;stroke-width:0.9736;stroke-miterlimit:10;" x1="412.775" y1="473.676" x2="691.049" y2="473.676"/>
	</g>
	<g>
		
			<line style="fill:none;stroke:#A9C3FA;stroke-width:0.9736;stroke-miterlimit:10;" x1="62.594" y1="473.13" x2="340.868" y2="473.13"/>
		<g>
			<g>
				<g>
					<g>
						<g>
							<path style="fill:#FFFFFF;" d="M258.736,461.665L258.736,461.665c-6.625,0-11.996-5.371-11.996-11.996V329.408h23.993
								v120.261C270.733,456.294,265.362,461.665,258.736,461.665z"/>
							<path style="fill:#C0D3FF;" d="M258.418,453.946L258.418,453.946c-3.922,0-7.102-3.18-7.102-7.102v-30.319h14.204v30.319
								C265.52,450.766,262.34,453.946,258.418,453.946z"/>
						</g>
					</g>
					<rect x="244.419" y="323.96" style="fill:#2D4D91;" width="29.283" height="5.448"/>
				</g>
				<g>
					<g>
						<g>
							<path style="fill:#FFFFFF;" d="M299.079,461.665L299.079,461.665c-6.626,0-11.997-5.371-11.997-11.996V329.408h23.993
								v120.261C311.076,456.294,305.705,461.665,299.079,461.665z"/>
							<path style="fill:#C0D3FF;" d="M298.761,453.946L298.761,453.946c-3.922,0-7.102-3.18-7.102-7.102v-72.778h14.204v72.778
								C305.863,450.766,302.684,453.946,298.761,453.946z"/>
						</g>
					</g>
					<rect x="284.878" y="323.96" style="fill:#2D4D91;" width="29.283" height="5.448"/>
				</g>
				<g>
					<rect x="188.298" y="390.139" style="fill:#1E0A05;" width="141.195" height="7.172"/>
					
						<line style="fill:none;stroke:#000000;stroke-width:0.9256;stroke-linecap:round;stroke-linejoin:round;stroke-miterlimit:10;" x1="198.231" y1="393.725" x2="198.231" y2="473.676"/>
					
						<line style="fill:none;stroke:#000000;stroke-width:0.9256;stroke-linecap:round;stroke-linejoin:round;stroke-miterlimit:10;" x1="319.89" y1="393.725" x2="319.89" y2="473.676"/>
					
						<line style="fill:none;stroke:#000000;stroke-width:0.9256;stroke-linecap:round;stroke-linejoin:round;stroke-miterlimit:10;" x1="198.231" y1="439.404" x2="319.89" y2="439.404"/>
				</g>
			</g>
			<g>
				<g>
					<g>
						<g>
							<polygon style="fill:#FFBDA8;" points="161.85,463.528 151.39,436.936 161.272,434.72 168.782,458.142 							"/>
							<g>
								<g>
									<g>
										<g>
											<defs>
												<path id="XMLID_26_" d="M160.039,459.283c0,0,7.411,0.317,7.677-5.529l21.201,1.789l-27.485,13.214L160.039,459.283z"/>
											</defs>
											<use xlink:href="#XMLID_26_"  style="overflow:visible;fill:#101010;"/>
											<clipPath id="XMLID_00000067231833810946347780000011771745993456053387_">
												<use xlink:href="#XMLID_26_"  style="overflow:visible;"/>
											</clipPath>
										</g>
										
											<rect x="160.532" y="462.012" transform="matrix(0.9012 -0.4333 0.4333 0.9012 -183.4403 121.9299)" style="fill:#FFFFFF;" width="30.497" height="2.801"/>
									</g>
								</g>
							</g>
						</g>
						<polygon style="fill:#0055BC;" points="135.315,344.062 145.48,381.127 170.76,447.395 153.44,454.822 113.768,356.623 						
							"/>
					</g>
					<g>
						<g>
							<polygon style="fill:#FFBDA8;" points="79.906,452.689 95.873,428.991 103.303,435.873 88.273,455.343 							"/>
							<g>
								<g>
									<g>
										<g>
											<defs>
												<path id="XMLID_27_" d="M82.375,448.79c0,0,3.943,6.284,8.908,3.186l10.552,18.475L75.362,455.31L82.375,448.79z"/>
											</defs>
											<use xlink:href="#XMLID_27_"  style="overflow:visible;fill:#101010;"/>
											<clipPath id="XMLID_00000005971557878126214710000014586557919567521156_">
												<use xlink:href="#XMLID_27_"  style="overflow:visible;"/>
											</clipPath>
										</g>
										
											<rect x="86.502" y="448.848" transform="matrix(0.4965 -0.8681 0.8681 0.4965 -358.5999 309.9925)" style="fill:#FFFFFF;" width="2.801" height="30.497"/>
									</g>
								</g>
							</g>
						</g>
						<g>
							<path style="fill:#0055BC;" d="M135.554,353.092l-12.01,49.104c-1.385,6.175-3.64,10.122-6.697,15.662l-19.399,32.624
								l-16.118-9.883l20.179-35.887l7.067-39.34L135.554,353.092z"/>
							
								<polyline style="fill:none;stroke:#000000;stroke-width:0.3228;stroke-linecap:round;stroke-linejoin:round;stroke-miterlimit:10;" points="
								126.8,388.881 130.764,372.677 134.882,369.362 							"/>
						</g>
					</g>
				</g>
				<g>
					<g>
						<g>
							<path style="fill:#FFFFFF;" d="M127.38,309.032c0,0,7.365,18.273,24.81,34.771c2.784,2.632,7.14,2.648,10.024,0.126l0,0
								c2.881-2.52,1.483-6.804-0.705-9.944l-19.64-28.718L127.38,309.032z"/>
							<g>
								<path style="fill:#FFBDA8;" d="M166.039,321.524l2.222-5.983l0.369-3.922l2.049,1.929l3.329-5.95
									c0.702-1.293,2.458-1.532,3.48-0.474l0,0c2.639,2.733,3.079,6.921,1.019,10.113c-1.168,1.81-2.795,3.863-5.048,5.937
									L166.039,321.524z"/>
								<path style="fill:#FCFCFC;" d="M151.756,334.085l14.285-16.671l10.641,5.145l-13.499,20.644
									c-2.59,3.07-7.172,3.477-10.262,0.91h0C149.918,341.617,149.405,337.202,151.756,334.085z"/>
							</g>
						</g>
						<path style="fill:#FFFFFF;" d="M134.882,301.386c0,0,6.447,0.881,8.186,6.146c1.74,5.265-2.521,49.003-2.521,49.003
							l13.043,34.392c0,0-8.417,3.082-11.344-3.948c-2.928-7.03-6.572-35.454-6.572-35.454L134.882,301.386z"/>
					</g>
					<g>
						<path style="fill:#A9C3FA;" d="M136.387,304.438c0,0,8.153,7.679,1.632,26.752c-6.522,19.074-17.039,1.752-17.039,1.752
							l6.265-32.683L136.387,304.438z"/>
						<path style="fill:#FFBDA8;" d="M136.387,304.438c0,0,3.535,5.838-1.918,5.838c-5.231,0-7.225-10.016-7.225-10.016
							L136.387,304.438z"/>
					</g>
					<g>
						<path style="fill:#FFFFFF;" d="M127.245,300.259c0,0-8.777-2.54-15.439,3.429l-1.568,11.306l-0.311,26.12l-21.291,52.432
							h15.048c5.181,0,9.807-3.234,11.564-8.108C121.019,369.432,132.299,332.525,127.245,300.259z"/>
						
							<polyline style="fill:none;stroke:#E6EFFF;stroke-width:0.5841;stroke-linecap:round;stroke-linejoin:round;stroke-miterlimit:10;" points="
							126.828,300.485 120.295,304.025 124.61,308.393 120.035,312.582 125.687,329.885 						"/>
					</g>
					<g>
						<g>
							<g>
								<g>
									<g>
										<path style="fill:#FFFFFF;" d="M95.245,379.454L95.245,379.454c-4.676-4.397-4.902-11.751-0.505-16.427l79.809-84.868
											l16.932,15.922l-79.809,84.868C107.275,383.625,99.921,383.851,95.245,379.454z"/>
										<path style="fill:#C0D3FF;" d="M100.143,373.795L100.143,373.795c-2.768-2.603-2.902-6.957-0.299-9.725l57.044-60.66
											l10.024,9.426l-57.044,60.66C107.265,376.265,102.911,376.398,100.143,373.795z"/>
									</g>
								</g>
								
									<rect x="170.786" y="281.697" transform="matrix(0.7285 0.6851 -0.6851 0.7285 245.0085 -49.5146)" style="fill:#2D4D91;" width="28.367" height="5.277"/>
							</g>
							<g>
								
									<line style="fill:none;stroke:#E6EFFF;stroke-width:0.5841;stroke-linecap:round;stroke-linejoin:round;stroke-miterlimit:10;" x1="128.539" y1="327.086" x2="114.735" y2="341.765"/>
								
									<line style="fill:none;stroke:#E6EFFF;stroke-width:0.5841;stroke-linecap:round;stroke-linejoin:round;stroke-miterlimit:10;" x1="168.661" y1="318.348" x2="147.408" y2="341.306"/>
								
									<path style="fill:none;stroke:#E6EFFF;stroke-width:0.5841;stroke-linecap:round;stroke-linejoin:round;stroke-miterlimit:10;" d="
									M120.128,369.724l-8.412,8.94c-4.466,4.746-11.744,5.484-16.713,1.267l-0.98-0.817"/>
								
									<line style="fill:none;stroke:#E6EFFF;stroke-width:0.5841;stroke-linecap:round;stroke-linejoin:round;stroke-miterlimit:10;" x1="140.361" y1="314.281" x2="146.204" y2="308.068"/>
							</g>
						</g>
						<g>
							<g>
								<path style="fill:#FFFFFF;" d="M117.301,300.514c0,0-18.27,7.375-34.758,24.829c-2.631,2.785-2.644,7.142-0.12,10.024l0,0
									c2.521,2.879,6.805,1.479,9.943-0.71l27.068-18.884L117.301,300.514z"/>
								
									<line style="fill:none;stroke:#E6EFFF;stroke-width:0.5841;stroke-linecap:round;stroke-linejoin:round;stroke-miterlimit:10;" x1="115.836" y1="318.348" x2="107.822" y2="324.295"/>
							</g>
							<g>
								<path style="fill:#FFBDA8;" d="M104.83,339.18l5.984,2.218l3.922,0.367l-1.928,2.05l5.952,3.326
									c1.294,0.701,1.534,2.457,0.476,3.479l0,0c-2.731,2.641-6.92,3.083-10.113,1.024c-1.81-1.167-3.864-2.793-5.939-5.044
									L104.83,339.18z"/>
								<g>
									<path style="fill:#FCFCFC;" d="M92.262,324.904l16.679,14.276l-5.139,10.644l-20.651-13.488
										c-3.072-2.588-3.481-7.17-0.916-10.261v0C84.728,323.07,89.143,322.554,92.262,324.904z"/>
									
										<line style="fill:none;stroke:#E6EFFF;stroke-width:0.5841;stroke-linecap:round;stroke-linejoin:round;stroke-miterlimit:10;" x1="99.343" y1="330.534" x2="94.388" y2="326.724"/>
								</g>
							</g>
						</g>
					</g>
				</g>
				<g>
					<path style="fill:#2D4D91;" d="M131.077,289.202c-0.638,5.026-5.23,8.583-10.257,7.945c-5.026-0.638-8.583-5.23-7.945-10.257
						c0.638-5.026,5.23-8.583,10.257-7.945C128.158,279.584,131.715,284.176,131.077,289.202z"/>
					<path style="fill:#2D4D91;" d="M143.068,267.842c0,0,4.69-3.101,7.302,1.609c2.612,4.71-3.153,12.935-3.153,12.935
						L143.068,267.842z"/>
					<path style="fill:#2D4D91;" d="M132.665,286.545L132.665,286.545l4.573-22.106l-1.843-0.218
						c-6.128-0.723-11.693,3.627-12.47,9.748l0,0C122.141,280.132,126.502,285.762,132.665,286.545z"/>
					<path style="fill:#2D4D91;" d="M122.779,275.108c-0.863,6.797,4.21,13.04,11.332,13.945
						c7.122,0.905,13.595-3.872,14.458-10.669c0.863-6.797-4.21-13.04-11.332-13.945
						C130.116,263.534,123.642,268.311,122.779,275.108z"/>
					
						<ellipse transform="matrix(0.642 -0.7667 0.7667 0.642 -164.3439 213.6918)" style="fill:#FF9D8D;" cx="146.661" cy="282.834" rx="3.364" ry="3.364"/>
					<polygon style="fill:#FFBDA8;" points="138.019,289.512 136.387,304.438 127.245,300.259 131.973,281.749 					"/>
					<polygon style="fill:#1F0A00;" points="137.299,296.101 131.819,288.408 137.945,290.178 					"/>
					<path style="fill:#FFBDA8;" d="M147.341,270.821c0.751,0.818,1.161,1.885,1.239,2.989c0.233,3.274,0.772,9.057-0.788,12.303
						c-2.029,4.22-6.005,6.891-11.648,5.056c0,0-6.841-1.58-7.152-10.538C128.498,266.357,140.907,263.814,147.341,270.821z"/>
					<g>
						<path style="fill:#1F0A00;" d="M146.5,280.432c0.055,0.421,0.442,0.718,0.863,0.663c0.421-0.055,0.718-0.442,0.663-0.863
							c-0.055-0.421-0.442-0.718-0.863-0.663C146.741,279.625,146.444,280.011,146.5,280.432z"/>
						<path style="fill:#1F0A00;" d="M140.031,279.742c0.055,0.422,0.442,0.718,0.863,0.663c0.421-0.055,0.718-0.442,0.663-0.863
							c-0.055-0.421-0.442-0.718-0.863-0.663C140.272,278.934,139.975,279.321,140.031,279.742z"/>
						
							<path style="fill:none;stroke:#000000;stroke-width:0.3311;stroke-linecap:round;stroke-linejoin:round;stroke-miterlimit:10;" d="
							M144.788,282.078l0.348,1.518c0.017,0.187-0.116,0.354-0.302,0.38l-0.843,0.048"/>
						<path style="fill:#1F0A00;" d="M146.355,275.856c0,0-0.393,0.82,0.651,1.131c0.793,0.236,1.298,0.373,1.727,0.627
							c0.243,0.144,0.555,0.092,0.738-0.123l0,0c0.148-0.173,0.183-0.417,0.083-0.621c-0.202-0.415-0.663-1.077-1.625-1.377
							C146.694,275.107,146.355,275.856,146.355,275.856z"/>
						<path style="fill:#1F0A00;" d="M142.093,274.552c0,0,0.217,0.904-1.178,0.88c-1.059-0.018-2.357,0.217-2.971,0.328
							c-0.348,0.063-0.717-0.083-0.873-0.344l0,0c-0.126-0.211-0.089-0.454,0.101-0.619c0.387-0.334,1.803-1.084,3.092-1.076
							C141.919,273.732,142.093,274.552,142.093,274.552z"/>
						
							<path style="fill:none;stroke:#000000;stroke-width:0.3311;stroke-linecap:round;stroke-linejoin:round;stroke-miterlimit:10;" d="
							M145.079,285.627c0,0-1.911,1.3-4.467-0.567"/>
					</g>
					<path style="fill:#2D4D91;" d="M134.196,271.372c0,0-2.446,1.958-2.719,10.039l-5.969-5.634c0,0,1.942-12.694,13.411-9.327
						L134.196,271.372z"/>
					<g>
						<path style="fill:#FFBDA8;" d="M124.435,282.135c0.337,1.989,2.223,3.327,4.211,2.99c1.989-0.337,3.327-2.223,2.99-4.211
							c-0.337-1.989-2.223-3.327-4.211-2.99C125.437,278.26,124.098,280.146,124.435,282.135z"/>
						
							<path style="fill:none;stroke:#000000;stroke-width:0.3311;stroke-linecap:round;stroke-linejoin:round;stroke-miterlimit:10;" d="
							M126.536,280.258c0,0,2.753-0.426,3.088,2.587"/>
					</g>
					<path style="fill:#2D4D91;" d="M145.057,268.948c-2.404,3.197-7.42,8.023-15.916,8.269l-3.454-6.19l11.886-6.547l6.164,1.15
						C145.283,265.892,146,267.695,145.057,268.948z"/>
				</g>
			</g>
		</g>
	</g>
</g>
</svg>
